<?xml version="1.0" encoding="UTF-8"?><svg width="256" height="243" viewBox="0 0 256 243" xmlns="http://www.w3.org/2000/svg" xmlns:xlink="http://www.w3.org/1999/xlink"><svg width="14" height="14" viewBox="0 0 14 14" id="Checkmark_checked" x="239.2" y="154"><title>Checkmark_checked</title><defs><rect id="aa" width="14" height="14" rx="2"/><mask id="ab" x="0" y="0" width="14" height="14" fill="#fff"><use xlink:href="#aa"/></mask></defs><g fill="none" fill-rule="evenodd"><use stroke-opacity=".5" stroke="#A2ACAD" mask="url(#ab)" stroke-width="2" fill="#FFF" xlink:href="#aa"/><path stroke="#6FB616" stroke-width="1.5" stroke-linecap="round" stroke-linejoin="round" d="M10.461 4L6.352 9.43 4 7.078"/></g></svg><svg width="8" height="13" viewBox="0 0 8 13" id="Icon_Arrow" x="208.2" y="168"><title>Icon_Arrow</title><path d="M1.5 11.5l5-5-5-5" stroke="#2D353A" stroke-width="2" fill="none" fill-rule="evenodd" stroke-linecap="round" stroke-linejoin="round"/></svg><svg width="16" height="15" viewBox="0 0 16 15" id="Icon_Arrow_Circle" x="231" y="181.6"><title>Icon_Collapse</title><g transform="rotate(-90 7.5 7.5)" fill="none" fill-rule="evenodd"><circle fill="#2AABCE" cx="7.5" cy="8" r="7.5"/><path stroke="#FFF" stroke-linecap="round" stroke-linejoin="round" d="M6 11l3-3-3-3"/></g></svg><svg width="15" height="16" viewBox="0 0 15 16" id="Icon_Arrow_Down" x="216" y="211.6"><title>Tertiary Btn Copy</title><g transform="rotate(90 7.5 8)" fill="none" fill-rule="evenodd"><circle fill="#2AABCE" cx="7.5" cy="8" r="7.5"/><path stroke="#FFF" stroke-linecap="round" stroke-linejoin="round" d="M10.5 9.5l-3-3-3 3"/></g></svg><svg width="15" height="15" viewBox="0 0 15 15" id="Icon_Arrow_Right" y="227.6"><title>Group</title><g fill="none" fill-rule="evenodd"><circle fill="#2AABCE" cx="7.5" cy="7.5" r="7.5"/><path stroke="#FFF" stroke-linecap="round" stroke-linejoin="round" d="M6 10l3-3-3-3"/></g></svg><svg width="15" height="15" viewBox="0 0 15 15" id="Icon_Arrow_Right_copy" x="231" y="211.6"><title>Group</title><g fill="none" fill-rule="evenodd"><circle fill="#2AABCE" cx="7.5" cy="7.5" r="7.5"/><path stroke="#FFF" stroke-linecap="round" stroke-linejoin="round" d="M6 10l3-3-3-3"/></g></svg><svg width="17" height="17" viewBox="0 0 17 17" id="Icon_Checkmark_list" x="214" y="181.6"><title>Icon_Checkmark_list</title><g transform="translate(1 1)" stroke-width="1.5" stroke="#FABB2E" fill="none" fill-rule="evenodd" stroke-linecap="round" stroke-linejoin="round"><path d="M13.296 2.6l-5.624 7.43L4.454 6.81M7.5.25a7.25 7.25 0 1 0 7.25 7.25"/></g></svg><svg width="12" height="12" viewBox="0 0 12 12" id="Icon_Info" x="240.2" y="168"><title>Icon_Info</title><path d="M6 0a6 6 0 1 0 0 12A6 6 0 0 0 6 0zm1.317 5.417c-.057.275-.892 1.798-1.135 2.313-.138.294-.41.703-.351 1.046.047.273.33.421.576.48.081.02.317.047.317.167a.089.089 0 0 1-.088.088l-1.853.001a.524.524 0 0 1-.528-.45c-.038-.296.161-.561.282-.814.26-.542.554-1.067.81-1.61.094-.196.18-.395.274-.59.094-.194.21-.414.133-.634-.083-.234-.36-.352-.584-.406-.081-.02-.316-.046-.316-.165 0-.05.038-.088.087-.089l1.854-.001c.274 0 .521.214.536.488a.69.69 0 0 1-.014.176zm-.424-1.215a.857.857 0 1 1 0-1.714.857.857 0 0 1 0 1.714z" fill-rule="nonzero" fill="#2AABCE"/></svg><svg width="31" height="30" viewBox="0 0 31 30" id="Icon_LogIn" x="208.2" y="138"><title>Icon_LogIn</title><g transform="translate(.219)" fill="none" fill-rule="evenodd"><circle fill="#EBF2F2" cx="15" cy="15" r="15"/><g transform="translate(7.5 7.5)" stroke="#1F95B5" stroke-width="2" stroke-linecap="round" stroke-linejoin="round"><path d="M11.899 4.396a4.396 4.396 0 0 1-4.394 4.397A4.396 4.396 0 0 1 3.11 4.397 4.396 4.396 0 0 1 7.505 0a4.396 4.396 0 0 1 4.394 4.396zM0 15s1.19-6.207 7.505-6.207h-.01C13.81 8.793 15 15 15 15H0z"/></g></g></svg><svg width="16" height="16" viewBox="0 0 16 16" id="Icon_Star_Empty" x="200" y="211.6"><title>Icon_Star_Empty</title><g fill="none" fill-rule="evenodd"><circle fill="#FABB2E" cx="8" cy="8" r="8"/><path d="M8 10.059L5.668 11.76c-.447.326-.67.166-.497-.361l.898-2.744-2.34-1.692c-.448-.324-.365-.586.19-.585l2.887.006.887-2.747c.17-.527.444-.529.614 0l.887 2.747 2.887-.006c.553-.001.64.26.19.585L9.93 8.656l.898 2.744c.172.525-.048.688-.497.36L8 10.06z" fill="#FFF"/></g></svg><svg width="16" height="16" viewBox="0 0 16 16" id="Icon_Start_Filled" x="184" y="211.6"><title>Icon_Start_Filled</title><g fill="none" fill-rule="evenodd"><circle fill="#C2CACA" cx="8" cy="8" r="8"/><path d="M8 10.059L5.668 11.76c-.447.326-.67.166-.497-.361l.898-2.744-2.34-1.692c-.448-.324-.365-.586.19-.585l2.887.006.887-2.747c.17-.527.444-.529.614 0l.887 2.747 2.887-.006c.553-.001.64.26.19.585L9.93 8.656l.898 2.744c.172.525-.048.688-.497.36L8 10.06z" fill="#FFF"/></g></svg><svg width="14" height="14" viewBox="0 0 14 14" id="Input_Checkmark_Unchecked" x="15" y="227.6"><title>Input_Checkmark_Unchecked</title><defs><rect id="la" width="14" height="14" rx="2"/><mask id="lb" x="0" y="0" width="14" height="14" fill="#fff"><use xlink:href="#la"/></mask></defs><use mask="url(#lb)" xlink:href="#la" stroke="#A2ACAD" stroke-width="2" fill="#FFF" fill-rule="evenodd" stroke-opacity=".5"/></svg><svg width="14" height="14" viewBox="0 0 14 14" id="Input_Checkmark_checked" x="29" y="227.6"><title>Input_Checkmark_checked</title><defs><rect id="ma" width="14" height="14" rx="2"/><mask id="mb" x="0" y="0" width="14" height="14" fill="#fff"><use xlink:href="#ma"/></mask></defs><g fill="none" fill-rule="evenodd"><use stroke-opacity=".5" stroke="#A2ACAD" mask="url(#mb)" stroke-width="2" fill="#FFF" xlink:href="#ma"/><path stroke="#6FB616" stroke-width="1.5" stroke-linecap="round" stroke-linejoin="round" d="M10.461 4L6.352 9.43 4 7.078"/></g></svg><svg width="12" height="12" viewBox="0 0 12 12" id="Input_Radiobutton_Off" x="228.2" y="168"><title>Input_Radiobutton_Off</title><defs><circle id="na" cx="6" cy="6" r="6"/><mask id="nb" x="0" y="0" width="12" height="12" fill="#fff"><use xlink:href="#na"/></mask></defs><use mask="url(#nb)" xlink:href="#na" stroke="#A2ACAD" stroke-width="2" fill="#FFF" fill-rule="evenodd" stroke-opacity=".5"/></svg><svg width="12" height="12" viewBox="0 0 12 12" id="Input_Radiobutton_On" x="216.2" y="168"><title>Input_Radiobutton_On</title><defs><circle id="oa" cx="6" cy="6" r="6"/><mask id="ob" x="0" y="0" width="12" height="12" fill="#fff"><use xlink:href="#oa"/></mask></defs><g fill="none" fill-rule="evenodd"><use stroke-opacity=".5" stroke="#A2ACAD" mask="url(#ob)" stroke-width="2" fill="#FFF" xlink:href="#oa"/><circle fill="#89143A" cx="6" cy="6" r="3"/></g></svg><svg width="46" height="46" viewBox="0 0 46 46" id="Invest" x="92" y="181.6"><title>Invest</title><g fill="none" fill-rule="evenodd"><path d="M46 23c0 12.703-10.297 23-23 23S0 35.703 0 23 10.297 0 23 0s23 10.297 23 23" fill="#F3F6F6"/><g fill-rule="nonzero" transform="translate(12 11)"><path d="M3 22.584v-3.168c0-.506-.448-.916-1-.916s-1 .41-1 .916v3.168c0 .506.448.916 1 .916s1-.41 1-.916z" fill="#D41B51"/><path d="M9 22.603v-6.206c0-.495-.448-.897-1-.897s-1 .402-1 .897v6.206c0 .495.448.897 1 .897s1-.402 1-.897z" fill="#545A92"/><path d="M15.5 22.61v-9.22c0-.492-.448-.89-1-.89s-1 .398-1 .89v9.22c0 .492.448.89 1 .89s1-.398 1-.89z" fill="#800F3E"/><path d="M22 22.616V10.384c0-.488-.448-.884-1-.884s-1 .396-1 .884v12.232c0 .488.448.884 1 .884s1-.396 1-.884z" fill="#22ACCB"/><path d="M1.328 14.367l21.25-11.304a.907.907 0 0 0 .374-1.225.903.903 0 0 0-1.222-.375L.48 12.767a.907.907 0 0 0-.374 1.224.903.903 0 0 0 1.222.376z" fill="#F9B73D"/><path d="M20.394 5.079a.904.904 0 1 0 1.738.5l.883-3.086a.906.906 0 0 0-.62-1.12L19.316.487a.906.906 0 0 0-.498 1.741l2.21.635-.634 2.215z" fill="#F9B73D"/></g></g></svg><svg width="46" height="46" viewBox="0 0 46 46" id="Loans" x="138" y="181.6"><title>Loans</title><g fill="none" fill-rule="evenodd"><path d="M46 23c0 12.703-10.297 23-23 23S0 35.703 0 23 10.297 0 23 0s23 10.297 23 23" fill="#F3F6F6"/><g fill-rule="nonzero" transform="translate(11 11)"><path d="M16.181 4.181a4.181 4.181 0 1 1-8.362 0 4.181 4.181 0 0 1 8.362 0zm-1.846 0a2.335 2.335 0 1 0-4.67 0 2.335 2.335 0 0 0 4.67 0z" fill="#F9B73D" style="mix-blend-mode:multiply"/><path d="M8.063 19.277a.923.923 0 0 0-.637.255L4.41 22.41a.923.923 0 0 0 1.275 1.336l2.747-2.622h7.377c.61.006 1.397-.585 3.905-2.62l.23-.186a197.558 197.558 0 0 0 3.136-2.612 2.566 2.566 0 1 0-3.337-3.902l-.038.035-1.531 1.475a.923.923 0 0 0 1.28 1.33l1.51-1.454a.72.72 0 0 1 .92 1.109 118.89 118.89 0 0 1-.959.81 195.764 195.764 0 0 1-2.374 1.962 66.532 66.532 0 0 1-2.11 1.657 12.55 12.55 0 0 1-.794.55H8.063z" fill="#D41B51" style="mix-blend-mode:multiply"/><path d="M.226 18.934l4.126 4.748a.923.923 0 0 0 1.393-1.21L1.62 17.722a.923.923 0 0 0-1.394 1.211z" fill="#22ACCB" style="mix-blend-mode:multiply"/><path d="M.329 17.622a.923.923 0 1 0 1.189 1.413l5.23-4.402.046-.042a2.335 2.335 0 0 1 1.622-.654h5.496a.901.901 0 0 1 0 1.802h-3.38a.923.923 0 1 0 0 1.846h3.38a2.747 2.747 0 0 0 0-5.495H8.416a4.181 4.181 0 0 0-2.88 1.15L.33 17.622z" fill="#545A92" style="mix-blend-mode:multiply"/></g></g></svg><svg width="47" height="46" viewBox="0 0 47 46" id="More" x="208.2" y="46"><title>More</title><g transform="translate(.497)" fill="none" fill-rule="evenodd"><path d="M46 23c0 12.703-10.297 23-23 23S0 35.703 0 23 10.297 0 23 0s23 10.297 23 23" fill="#F3F6F6"/><g stroke-width="1.89" transform="translate(16 16)" stroke-linecap="round" stroke-linejoin="round"><path d="M0 7h14" stroke="#D40C46" style="mix-blend-mode:multiply"/><path d="M7 0v14" stroke="#55538F" style="mix-blend-mode:multiply"/></g></g></svg><svg width="46" height="46" viewBox="0 0 46 46" id="Mortgages" x="208.2" y="92"><title>Mortgages</title><g fill="none" fill-rule="evenodd"><path d="M46 23c0 12.703-10.297 23-23 23S0 35.703 0 23 10.297 0 23 0s23 10.297 23 23" fill="#F3F6F6"/><g fill-rule="nonzero" transform="translate(13 11)"><path d="M1.953 23.03v-12.5c0-.552-.437-1-.976-1a.989.989 0 0 0-.977 1v12.5c0 .553.437 1 .977 1s.976-.447.976-1z" fill="#D41D52" style="mix-blend-mode:multiply"/><path d="M21 23.03v-12.5c0-.552-.437-1-.977-1a.989.989 0 0 0-.976 1v12.5c0 .553.437 1 .976 1 .54 0 .977-.447.977-1z" fill="#81143F" style="mix-blend-mode:multiply"/><path d="M1.65 11.224l9.749-9.5c.39-.38.406-1.013.034-1.413a.96.96 0 0 0-1.38-.035l-9.75 9.5a1.017 1.017 0 0 0-.034 1.413.96.96 0 0 0 1.381.035z" fill="#555B93" style="mix-blend-mode:multiply"/><path d="M20.714 9.793l-9.28-9.5a.96.96 0 0 0-1.38 0 1.017 1.017 0 0 0 0 1.414l9.279 9.5a.96.96 0 0 0 1.38 0 1.017 1.017 0 0 0 0-1.414z" fill="#1FACCB" style="mix-blend-mode:multiply"/><path d="M16.116 22h-5.372a.989.989 0 0 0-.977 1c0 .552.438 1 .977 1h5.372c.54 0 .977-.448.977-1s-.437-1-.977-1z" fill="#F9B73C" style="mix-blend-mode:multiply"/></g></g></svg><svg width="47" height="46" viewBox="0 0 47 46" id="Payment" x="208.2"><title>Payment</title><g transform="translate(.497)" fill="none" fill-rule="evenodd"><path d="M46 23c0 12.703-10.297 23-23 23S0 35.703 0 23 10.297 0 23 0s23 10.297 23 23" fill="#F3F6F6"/><g fill-rule="nonzero" transform="translate(11 13)"><path d="M.923 21.095A.923.923 0 0 1 0 20.172V8.769c0-.51.413-.923.923-.923h16.615c.51 0 .924.413.924.923v11.403c0 .51-.414.923-.924.923H.923zm15.692-1.846V9.692H1.846v9.557h14.77z" fill="#D41B51" style="mix-blend-mode:multiply"/><path d="M7.822 5.4a.923.923 0 1 1-1.798-.415l.73-3.162c.211-.912 1.089-1.532 2-1.321L22.39 3.654c.91.21 1.427 1.152 1.217 2.064l-1.615 6.987a.923.923 0 0 1-1.799-.415l1.59-6.881L8.53 2.345 7.822 5.4z" fill="#22ACCB" style="mix-blend-mode:multiply"/><path d="M4.615 17.077h3.298a.923.923 0 1 0 0-1.846H4.615a.923.923 0 0 0 0 1.846z" fill="#F9B73D" style="mix-blend-mode:multiply"/><path d="M.923 13.385h16.615a.923.923 0 1 0 0-1.847H.923a.923.923 0 0 0 0 1.847z" fill="#545A92" style="mix-blend-mode:multiply"/></g></g></svg><svg width="46" height="46" viewBox="0 0 46 46" id="Savings" x="46" y="181.6"><title>Savings</title><g fill="none" fill-rule="evenodd"><path d="M46 23c0 12.703-10.297 23-23 23S0 35.703 0 23 10.297 0 23 0s23 10.297 23 23" fill="#F3F6F6"/><g fill-rule="nonzero" transform="translate(11 13)"><path d="M7.211 17.82c.254.15.517.286.788.41a.91.91 0 0 0 1.105-.283l-.727-.582-.86-.345-1.234 3.225a.952.952 0 0 0 .523 1.224.917.917 0 0 0 1.196-.535l1.235-3.225c.22-.577-.112-1.075-.56-1.239a.875.875 0 0 0-1.029.315l.727.583.377-.863a6.905 6.905 0 0 1-4.033-6.266.934.934 0 0 0-.923-.944.934.934 0 0 0-.924.944 8.799 8.799 0 0 0 4.34 7.581z" fill="#D41B51" style="mix-blend-mode:multiply"/><path d="M17.217 20.927a.917.917 0 0 0 1.191.545.951.951 0 0 0 .533-1.22l-1.234-3.305-.02-.047a.915.915 0 0 0-1.248-.479 6.047 6.047 0 0 1-1.126.392c-.846.22-1.833.35-2.96.35-1.358 0-3.058-.41-3.601-.658a.915.915 0 0 0-1.22.477A.953.953 0 0 0 8 18.23c.77.352 2.722.822 4.354.822 1.283 0 2.422-.15 3.414-.408.195-.051.375-.103.54-.155l.91 2.438z" fill="#545A92" style="mix-blend-mode:multiply"/><path d="M16.362 3.43a.949.949 0 0 0 .47.838 6.95 6.95 0 0 1 2.999 3.494.93.93 0 0 0 .632.567l1.551.4v2.988l-1.796.763a.933.933 0 0 0-.49.488 6.946 6.946 0 0 1-3.289 3.453.954.954 0 0 0-.431 1.26.914.914 0 0 0 1.232.442 8.814 8.814 0 0 0 4.014-4.038l2.037-.864a.945.945 0 0 0 .57-.873V7.994a.94.94 0 0 0-.698-.916l-1.807-.467a8.834 8.834 0 0 0-3.139-3.692l.032-1.95c.01-.638-.587-1.103-1.185-.922L12.23 1.512a.948.948 0 0 0-.623 1.173.92.92 0 0 0 1.147.638l3.628-1.099-.02 1.205z" fill="#22ACCB" style="mix-blend-mode:multiply"/><path d="M2.088 8.791a1.4 1.4 0 0 1-.27-.293c-.028-.044-.039-.064-.033-.05a.916.916 0 0 0-1.206-.514.952.952 0 0 0-.501 1.234c.127.314.392.71.843 1.088.703.586 1.658.928 2.866.928a.936.936 0 0 0 .932-.945c0-3.777 3.08-6.877 6.847-6.877h.926c.51 0 .923-.423.923-.945a.934.934 0 0 0-.923-.944h-.926c-4.433 0-8.12 3.387-8.633 7.728a2.065 2.065 0 0 1-.845-.41z" fill="#800F3E" style="mix-blend-mode:multiply"/><path d="M11.424 6.823a5.338 5.338 0 0 1 1.855-.051c.14.021.238.04.279.051a.922.922 0 0 0 1.117-.691.946.946 0 0 0-.676-1.143 4.978 4.978 0 0 0-.452-.086 7.13 7.13 0 0 0-2.112 0c-.202.03-.356.062-.452.086a.946.946 0 0 0-.676 1.143.922.922 0 0 0 1.117.691z" fill="#F9B73D" style="mix-blend-mode:multiply"/></g></g></svg><svg width="46" height="46" viewBox="0 0 46 46" id="Target_saving" y="181.6"><title>Target saving</title><g fill="none" fill-rule="evenodd"><path d="M46 23c0 12.703-10.297 23-23 23S0 35.703 0 23 10.297 0 23 0s23 10.297 23 23" fill="#F3F6F6"/><g fill-rule="nonzero" transform="translate(11 11)"><path d="M20.61.923a.923.923 0 0 0-1.845 0v3.39c0 .51.413.922.923.922h3.389a.923.923 0 1 0 0-1.846h-2.466V.923z" fill="#F9B73D" style="mix-blend-mode:multiply"/><path d="M4.772 19.228C.87 15.328.87 9.003 4.772 5.102A9.989 9.989 0 0 1 15.35 2.813a.923.923 0 0 0 .648-1.728A11.835 11.835 0 0 0 3.466 3.797c-4.621 4.622-4.621 12.115 0 16.737a.923.923 0 1 0 1.306-1.306z" fill="#545A92" style="mix-blend-mode:multiply"/><path d="M21.136 8.517a9.99 9.99 0 0 1-2.238 10.711c-3.901 3.901-10.225 3.901-14.126 0a.923.923 0 1 0-1.306 1.306c4.622 4.621 12.115 4.621 16.737 0a11.836 11.836 0 0 0 2.652-12.69.923.923 0 0 0-1.719.673z" fill="#D41B51" style="mix-blend-mode:multiply"/><path d="M12.219 12.59l8.1-7.605a.923.923 0 1 0-1.263-1.346l-8.101 7.605a.923.923 0 0 0 1.264 1.346z" fill="#F9B73D" style="mix-blend-mode:multiply"/><path d="M11.287 5.788a6.227 6.227 0 0 0-5.789 5.486 6.205 6.205 0 0 0 2.083 5.399.923.923 0 1 0 1.216-1.39 4.36 4.36 0 0 1-1.465-3.794 4.381 4.381 0 0 1 4.072-3.858.923.923 0 0 0-.117-1.843z" fill="#22ACCB" style="mix-blend-mode:multiply"/><path d="M7.581 16.673a6.213 6.213 0 0 0 3.385 1.498c3.418.398 6.512-2.044 6.91-5.456a.923.923 0 0 0-1.833-.214 4.382 4.382 0 0 1-4.864 3.836 4.367 4.367 0 0 1-2.382-1.053.923.923 0 0 0-1.216 1.389z" fill="#800F3E" style="mix-blend-mode:multiply"/></g></g></svg><svg width="15" height="16" viewBox="0 0 15 16" id="arrow_left" x="239.2" y="138"><title>Group 2</title><g fill="none" fill-rule="evenodd"><circle fill="#2AABCE" transform="rotate(-90 7.5 8)" cx="7.5" cy="8" r="7.5"/><path stroke="#FFF" stroke-linecap="round" stroke-linejoin="round" d="M9 4.5l-3 3 3 3"/></g></svg><svg width="30" height="30" viewBox="0 0 30 30" id="btn-blue-dot" x="184" y="181.6"><title>btn_yellow dot</title><g transform="rotate(90 15 15)" fill="none" fill-rule="evenodd"><rect fill="#2AABCE" width="30" height="30" rx="15"/><g transform="rotate(-90 15 7.2)"><path d="M0 0h14v14H0z"/><path d="M11.667 7H2.333" stroke="#FFF" stroke-width="2" stroke-linecap="round"/><path stroke="#FFF" stroke-width="2" stroke-linecap="round" stroke-linejoin="round" d="M9.042 10.5L11.958 7 9.042 3.5"/></g></g></svg><svg viewBox="0 0 208.2 181.6" width="208.2" height="181.6" id="ideal-logo"><path d="M56.5 157.6H23.1v-55.4h33.4v55.4zm-16.4-102c-10.4 0-18.9 8.5-18.9 18.9 0 10.4 8.5 18.9 18.9 18.9 10.4 0 18.9-8.5 18.9-18.9 0-10.4-8.4-18.9-18.9-18.9z"/><path d="M119.7 0H0v181.6h119.7c26.2-.4 46.9-6.9 61.6-19.4 17.9-15.2 26.9-39.2 26.9-71.4 0-15.4-2.4-29.2-7.1-41-4.5-11.3-11.1-20.9-19.8-28.6C166.2 7.7 144.9.5 119.7 0zm-2.2 12.1c23.2 0 42.5 6.3 55.9 18.2 15.1 13.4 22.8 33.8 22.8 60.5 0 53-25.8 78.7-78.7 78.7H12.1V12.1h105.4z"/><path fill="#CD0067" d="M141.6 70.4c.9 2.5 2.5 6.8 3.1 8.3h-6.1c.5-1.5 2.1-5.8 3-8.3zM79.3 85.6c.9-.2 1.6-.6 2.2-1.1.6-.5 1-1.4 1.4-2.6.4-1.3.6-3.2.6-5.5s-.2-4.1-.6-5.3c-.4-1.2-.9-2.1-1.6-2.7-.7-.6-1.5-1-2.5-1.3-.6-.1-1.9-.3-5-.3h-1.9v19.1h3.8c1.7-.1 2.9-.2 3.6-.3zm106 7.3c-.2 54.2-37.7 64.8-72.9 64.8H71.8V92.9h4.7c2.4 0 4.4-.2 5.9-.7 2-.6 3.6-1.6 4.8-2.7 1.6-1.5 2.8-3.5 3.6-5.9.7-2 1-4.3 1-7 0-3-.4-5.6-1.1-7.7-.7-2.1-1.8-3.9-3.2-5.4-1.4-1.5-3.1-2.5-5.1-3.1-1.5-.4-3.5-.6-6.2-.6h-4.3V26.7h40.6c33.8 0 69.6 12.8 72.6 59.1h-14.9V59.9h-8.1v33h23.2zm-62.4-7.1h-17.6V79h15.8v-7h-15.8v-5.3h17v-7.1h-25v33.2h25.6v-7zm36 7.1l-13.3-33.2h-7.9l-12.9 33.2h8.6s2.3-6.2 2.6-7.1h11.4c.4.9 2.7 7.1 2.7 7.1h8.8z"/></svg></svg>