<?xml version="1.0" encoding="UTF-8"?>
<svg width="12px" height="12px" viewBox="0 0 12 12" version="1.1" xmlns="http://www.w3.org/2000/svg" xmlns:xlink="http://www.w3.org/1999/xlink">
    <!-- Generator: Sketch 42 (36781) - http://www.bohemiancoding.com/sketch -->
    <title>Icon_Info</title>
    <desc>Created with Sketch.</desc>
    <defs></defs>
    <g id="Skinning_Components" stroke="none" stroke-width="1" fill="none" fill-rule="evenodd">
        <g id="Component_Review" transform="translate(-106.000000, -289.000000)" fill="#2AABCE">
            <g id="Review" transform="translate(11.000000, 13.000000)">
                <g id="Add" transform="translate(7.000000, 244.000000)">
                    <g id="Group-7" transform="translate(0.000000, 28.000000)">
                        <g id="Icon_Info" transform="translate(88.000000, 4.000000)">
                            <g id="Shape">
                                <path d="M6,0 C2.68661053,0 0,2.68623158 0,6 C0,9.31376842 2.68661053,12 6,12 C9.31338947,12 12,9.31376842 12,6 C12,2.68623158 9.31338947,0 6,0 Z M7.31722105,5.41667368 C7.25974737,5.69229474 6.42530526,7.21490526 6.18227368,7.72964211 C6.04370526,8.02433684 5.77124211,8.43296842 5.83098947,8.77642105 C5.87848421,9.04938947 6.16067368,9.19743158 6.40673684,9.25692632 C6.48808421,9.27650526 6.72366316,9.30290526 6.72366316,9.42252632 C6.72366316,9.47115789 6.68501053,9.50968421 6.63637895,9.51094737 C6.63637895,9.51208421 4.78256842,9.51208421 4.78256842,9.51208421 C4.51806316,9.51208421 4.28804211,9.32437895 4.25469474,9.06189474 C4.21654737,8.76631579 4.41637895,8.50067368 4.53713684,8.24778947 C4.79608421,7.70614737 5.09052632,7.1808 5.34770526,6.63764211 C5.44054737,6.4416 5.52644211,6.24277895 5.6208,6.04787368 C5.71515789,5.85397895 5.83174737,5.63393684 5.75406316,5.41414737 C5.67082105,5.17983158 5.39393684,5.06223158 5.17048421,5.00778947 C5.08901053,4.98846316 4.85355789,4.96181053 4.85355789,4.84282105 C4.85355789,4.79381053 4.89246316,4.75515789 4.94109474,4.75402105 C4.94109474,4.75288421 6.79465263,4.75288421 6.79465263,4.75288421 C7.06888421,4.75288421 7.31621053,4.96736842 7.33073684,5.24096842 C7.33414737,5.2992 7.32896842,5.35781053 7.31722105,5.41667368 Z M6.89292632,4.2024 C6.41949474,4.2024 6.03574737,3.81827368 6.03574737,3.34509474 C6.03574737,2.87191579 6.41949474,2.48791579 6.89292632,2.48791579 C7.36572632,2.48791579 7.75010526,2.87204211 7.75010526,3.34509474 C7.75010526,3.81827368 7.36572632,4.2024 6.89292632,4.2024 Z" fill-rule="nonzero"></path>
                            </g>
                        </g>
                    </g>
                </g>
            </g>
        </g>
    </g>
</svg>