<?xml version="1.0" encoding="UTF-8" standalone="no"?>
<svg width="22px" height="24px" viewBox="0 0 22 24" version="1.1" xmlns="http://www.w3.org/2000/svg" xmlns:xlink="http://www.w3.org/1999/xlink">
    <!-- Generator: Sketch 43.2 (39069) - http://www.bohemiancoding.com/sketch -->
    <title>icons_active_notifications</title>
    <desc>Created with Sketch.</desc>
    <defs></defs>
    <g id="Symbols" stroke="none" stroke-width="1" fill="none" fill-rule="evenodd">
        <g id="Icons-/-Notifications" transform="translate(-1.000000, 0.000000)">
            <g id="icons_active_notifications">
                <rect id="Rectangle-7" x="0" y="0" width="24" height="24"></rect>
                <path d="M8.3008249,20.8427995 C8.78776763,22.4767824 10.2780099,23.6165257 12.0005329,23.6165257 C13.7222546,23.6165257 15.212491,22.4768454 15.6994699,20.8436201 C15.7783745,20.5789908 15.6278148,20.3005015 15.3631854,20.221597 C15.0985561,20.1426924 14.8200669,20.2932521 14.7411623,20.5578814 C14.3791329,21.7720523 13.2749066,22.6165257 12.0005329,22.6165257 C10.725392,22.6165257 9.62120857,21.7720418 9.25917457,20.557202 C9.180309,20.2925611 8.90184195,20.1419604 8.63720099,20.2208259 C8.37256004,20.2996915 8.22195933,20.5781586 8.3008249,20.8427995 Z" id="Fill-1" fill="#2D353A" fill-rule="nonzero"></path>
                <path d="M21.7989522,20.0848846 C20.9913166,20.4438619 15.6943273,21.3125 12.25,21.3125 C8.80566498,21.3125 2.94364163,20.4129054 2.20549645,20.0848147 C1.55826934,19.8047164 1.10641462,19.2052723 1.01641567,18.5062804 C0.926452501,17.8075665 1.21031627,17.1135856 1.75749132,16.6830482 C1.88270604,16.5810214 2.03709901,16.4403753 2.25146049,16.2126146 C2.60162106,15.8405665 2.95108432,15.3952629 3.27816441,14.87577 C4.24953418,13.3329684 4.83286139,11.4604184 4.83286139,9.24283498 C4.83286139,3.12000952 7.61356964,0.4995 12.0019301,0.4995 C16.3882699,0.4995 19.1717489,3.12629509 19.1717489,9.24958505 C19.1717489,11.4703339 19.7565851,13.3434384 20.7304486,14.8850018 C21.057507,15.4027144 21.4069341,15.8465071 21.7571883,16.217386 C21.9722139,16.4450734 22.1291459,16.5875117 22.2535346,16.6883107 C22.7984421,17.1280431 23.076609,17.8244252 22.981751,18.5163855 C22.8874708,19.2114519 22.4404913,19.8075162 21.7989522,20.0848846 Z M21.3974599,19.1690362 C21.7201592,19.0294897 21.9433704,18.731829 21.9909211,18.3812724 C22.0381649,18.0366413 21.8983871,17.686712 21.6247408,17.4658822 C21.1243117,17.060362 20.5128296,16.4128727 19.8850202,15.4190906 C18.8137537,13.7233443 18.1717489,11.6671414 18.1717489,9.24958505 C18.1717489,3.69194925 15.8485238,1.4995 12.0019301,1.4995 C8.15302393,1.4995 5.83286139,3.6859962 5.83286139,9.24283498 C5.83286139,11.656752 5.19265125,13.711903 4.12440315,15.4085739 C3.49711048,16.4048867 2.88899562,17.0510132 2.3825517,17.4635786 C2.10518871,17.6818643 1.96321319,18.0289614 2.00822835,18.3785792 C2.05315663,18.7275221 2.27884874,19.0269321 2.60715044,19.1690362 C3.20046641,19.4327322 8.9332924,20.3125 12.25,20.3125 C15.5658208,20.3125 20.730157,19.4656153 21.3974599,19.1690362 Z" id="Fill-1" fill="#2D353A" fill-rule="nonzero"></path>
            </g>
        </g>
    </g>
</svg>