<?xml version="1.0" encoding="UTF-8" standalone="no"?>
<svg width="27px" height="25px" viewBox="0 0 27 25" version="1.1" xmlns="http://www.w3.org/2000/svg" xmlns:xlink="http://www.w3.org/1999/xlink">
    <!-- Generator: Sketch 43.2 (39069) - http://www.bohemiancoding.com/sketch -->
    <title>Icons / Active / Alert</title>
    <desc>Created with Sketch.</desc>
    <defs></defs>
    <g id="Symbols" stroke="none" stroke-width="1" fill="none" fill-rule="evenodd">
        <g id="Input/Field/Error" transform="translate(-419.000000, -12.000000)" fill="#D0021B">
            <g id="Icons-/-Active-/-Alert" transform="translate(419.000000, 12.000000)">
                <g id="icons_header_dark_alert">
                    <g id="Group-2">
                        <path d="M15.4791421,1.78875953 L25.9582441,21.1858408 C26.2360418,21.5666551 26.3895505,22.0283485 26.3895505,22.508193 C26.3895505,23.752684 25.3794294,24.7527489 24.1237192,24.7527489 L2.86386189,24.7527489 C2.07135284,24.7527489 1.33794983,24.3376385 0.930052779,23.6570553 C0.524673696,22.9769193 0.507617581,22.1349674 0.884784134,21.4403064 L11.5223499,1.78875953 C11.916379,1.06487172 12.6765148,0.613346044 13.5015642,0.613346044 C14.3264201,0.613346044 15.0850196,1.06470025 15.4791421,1.78875953 Z M13.5015642,1.84077459 C13.1259936,1.84077459 12.7794836,2.04660383 12.6010978,2.37432053 L1.96384288,22.0252957 C1.79302487,22.3399068 1.80073422,22.7204682 1.98363971,23.0273465 C2.1689224,23.3364922 2.50253755,23.5253203 2.86386189,23.5253203 L24.1237192,23.5253203 C24.7042732,23.5253203 25.1621219,23.0720297 25.1621219,22.508193 C25.1621219,22.2909305 25.0926435,22.0819668 24.9225506,21.8393692 L14.4006992,2.37488517 C14.2212697,2.04584682 13.8763388,1.84077459 13.5015642,1.84077459 Z" id="Fill-1" fill-rule="nonzero"></path>
                        <path d="M12.2742855,8.30251195 L12.2742855,17.4734875 C12.2742855,17.9914978 12.8238239,18.4114282 13.501714,18.4114282 C14.1796041,18.4114282 14.7291425,17.9914978 14.7291425,17.4734875 L14.7291425,8.30251195 C14.7291425,7.78450162 14.1796041,7.36457127 13.501714,7.36457127 C12.8238239,7.36457127 12.2742855,7.78450162 12.2742855,8.30251195 Z" id="Stroke-3" stroke="#FFFFFF" fill-rule="nonzero"></path>
                        <path d="M14.7291425,20.8662853 C14.7291425,21.5438258 14.1792546,22.0937138 13.501714,22.0937138 C12.8241734,22.0937138 12.2742855,21.5438258 12.2742855,20.8662853 C12.2742855,20.1887447 12.8241734,19.6388567 13.501714,19.6388567 C14.1792546,19.6388567 14.7291425,20.1887447 14.7291425,20.8662853" id="Fill-5"></path>
                    </g>
                </g>
            </g>
        </g>
    </g>
</svg>