<svg xmlns="http://www.w3.org/2000/svg" viewBox="0 0 208.2 181.6"><path d="M56.5 157.6H23.1v-55.4h33.4v55.4zm-16.4-102c-10.4 0-18.9 8.5-18.9 18.9 0 10.4 8.5 18.9 18.9 18.9 10.4 0 18.9-8.5 18.9-18.9 0-10.4-8.4-18.9-18.9-18.9z"/><path d="M119.7 0H0v181.6h119.7c26.2-.4 46.9-6.9 61.6-19.4 17.9-15.2 26.9-39.2 26.9-71.4 0-15.4-2.4-29.2-7.1-41-4.5-11.3-11.1-20.9-19.8-28.6C166.2 7.7 144.9.5 119.7 0zm-2.2 12.1c23.2 0 42.5 6.3 55.9 18.2 15.1 13.4 22.8 33.8 22.8 60.5 0 53-25.8 78.7-78.7 78.7H12.1V12.1h105.4z"/><path fill="#CD0067" d="M141.6 70.4c.9 2.5 2.5 6.8 3.1 8.3h-6.1c.5-1.5 2.1-5.8 3-8.3zM79.3 85.6c.9-.2 1.6-.6 2.2-1.1.6-.5 1-1.4 1.4-2.6.4-1.3.6-3.2.6-5.5s-.2-4.1-.6-5.3c-.4-1.2-.9-2.1-1.6-2.7-.7-.6-1.5-1-2.5-1.3-.6-.1-1.9-.3-5-.3h-1.9v19.1h3.8c1.7-.1 2.9-.2 3.6-.3zm106 7.3c-.2 54.2-37.7 64.8-72.9 64.8H71.8V92.9h4.7c2.4 0 4.4-.2 5.9-.7 2-.6 3.6-1.6 4.8-2.7 1.6-1.5 2.8-3.5 3.6-5.9.7-2 1-4.3 1-7 0-3-.4-5.6-1.1-7.7-.7-2.1-1.8-3.9-3.2-5.4-1.4-1.5-3.1-2.5-5.1-3.1-1.5-.4-3.5-.6-6.2-.6h-4.3V26.7h40.6c33.8 0 69.6 12.8 72.6 59.1h-14.9V59.9h-8.1v33h23.2zm-62.4-7.1h-17.6V79h15.8v-7h-15.8v-5.3h17v-7.1h-25v33.2h25.6v-7zm36 7.1l-13.3-33.2h-7.9l-12.9 33.2h8.6s2.3-6.2 2.6-7.1h11.4c.4.9 2.7 7.1 2.7 7.1h8.8z"/></svg>