<?xml version="1.0" encoding="UTF-8" standalone="no"?>
<svg width="90px" height="90px" viewBox="0 0 90 90" version="1.1" xmlns="http://www.w3.org/2000/svg" xmlns:xlink="http://www.w3.org/1999/xlink">
    <!-- Generator: Sketch 43.2 (39069) - http://www.bohemiancoding.com/sketch -->
    <title>img_graphic_success</title>
    <desc>Created with Sketch.</desc>
    <defs></defs>
    <g id="Symbols" stroke="none" stroke-width="1" fill="none" fill-rule="evenodd">
        <g id="Img-/-Feature-illustration-/-Success" transform="translate(-5.000000, -5.000000)">
            <g id="img_graphic_success">
                <rect id="Bound" x="0" y="0" width="100" height="100"></rect>
                <circle id="Background" fill="#F3F6F6" cx="50" cy="50" r="45"></circle>
                <g id="Check" transform="translate(13.000000, 14.000000)">
                    <path d="M68.8504546,27.1994539 C69.6108801,30.0456259 70,32.9963718 70,35.9995664 C70,36.5518512 70.4477153,36.9995664 71,36.9995664 C71.5522847,36.9995664 72,36.5518512 72,35.9995664 C72,32.8216835 71.5879959,29.6974032 70.7826798,26.683212 C70.6401235,26.1496427 70.0920155,25.8326641 69.5584462,25.9752203 C69.024877,26.1177766 68.7078983,26.6658847 68.8504546,27.1994539 Z M68.9549384,44.398523 C65.1570232,59.3472114 51.6423431,70 36,70 C17.2220269,70 2,54.7779012 2,36.0004336 C2,17.222229 17.2218966,2 36,2 C40.5058167,2 44.8877468,2.87624504 48.9618574,4.5575429 C49.4723786,4.76822403 50.0570286,4.52515561 50.2677098,4.0146344 C50.4783909,3.50411319 50.2353225,2.91946318 49.7248013,2.70878205 C45.409764,0.928058956 40.7687227,0 36,0 C16.1173173,0 0,16.1176693 0,36.0004336 C0,55.8824686 16.1174552,72 36,72 C52.5626553,72 66.8714708,60.7212434 70.8933559,44.891004 C71.0293507,44.3557248 70.7056668,43.8115496 70.1703876,43.6755547 C69.6351084,43.5395598 69.0909332,43.8632437 68.9549384,44.398523 Z" id="Stroke-1" fill="#FABB2E" fill-rule="nonzero"></path>
                    <polygon id="Path-2" fill="#FFFFFF" points="15.8701172 34.753418 19.8886719 30.171875 35.059082 44.6303711 67.3730469 2.39550781 72.2578125 6.93554688 35.059082 54.5488281"></polygon>
                    <path d="M15.8701172,34.753418 L35.059082,54.5488281 L72.2578125,6.93554687 L67.3730469,2.39550781 L35.059082,44.6303711 L19.8886719,30.171875 L15.8701172,34.753418 Z M65.7846346,1.18021093 C66.5017277,0.242958966 67.8702141,0.127140911 68.7346229,0.930546854 L73.6193886,5.47058592 C74.3799017,6.1774283 74.4730619,7.3486769 73.8338475,8.16685252 L36.6351171,55.7801338 C35.887868,56.7365906 34.4678406,56.8123706 33.6230425,55.9408736 L14.4340777,36.1454634 C13.7089054,35.3973729 13.6795211,34.2178779 14.3665432,33.4346059 L18.3850979,28.8530629 C19.1348447,27.9982786 20.4454439,27.9396605 21.2685069,28.724099 L34.8252334,41.6446381 L65.7846346,1.18021093 Z" id="Path-2" fill="#FABB2E" fill-rule="nonzero"></path>
                </g>
            </g>
        </g>
    </g>
</svg>