<?xml version="1.0" encoding="UTF-8" standalone="no"?>
<svg width="90px" height="90px" viewBox="0 0 90 90" version="1.1" xmlns="http://www.w3.org/2000/svg" xmlns:xlink="http://www.w3.org/1999/xlink">
    <!-- Generator: Sketch 43.2 (39069) - http://www.bohemiancoding.com/sketch -->
    <title>img_graphic_failed</title>
    <desc>Created with Sketch.</desc>
    <defs></defs>
    <g id="Symbols" stroke="none" stroke-width="1" fill="none" fill-rule="evenodd">
        <g id="Img-/-Feature-illustration-/-Failed" transform="translate(-5.000000, -5.000000)">
            <g id="img_graphic_failed">
                <rect id="Bound" x="0" y="0" width="100" height="100"></rect>
                <circle id="Background" fill="#F3F6F6" cx="50" cy="50" r="45"></circle>
                <path d="M50,88 C29.0131795,88 12,70.9868205 12,50 C12,29.0131795 29.0131795,12 50,12 C70.9868205,12 88,29.0131795 88,50 C88,70.9868205 70.9868205,88 50,88 Z M50,86 C69.882251,86 86,69.882251 86,50 C86,30.117749 69.882251,14 50,14 C30.117749,14 14,30.117749 14,50 C14,69.882251 30.117749,86 50,86 Z" id="Oval-9" fill="#FABB2E" fill-rule="nonzero"></path>
                <path d="M18.6729521,60.395958 C20.2745004,65.2343534 22.9823127,69.6513603 26.6654762,73.3345238 C30.2606094,76.929657 34.5553481,79.5960401 39.26075,81.211313 C39.7831136,81.3906303 40.3519383,81.1125363 40.5312556,80.5901726 C40.7105729,80.067809 40.4324789,79.4989843 39.9101152,79.319667 C35.4911247,77.8027135 31.4583499,75.2989703 28.0796898,71.9203102 C24.6183361,68.4589566 22.0757217,64.3114219 20.5716389,59.7674771 C20.3980888,59.2431692 19.832363,58.9588239 19.3080551,59.1323741 C18.7837472,59.3059243 18.4994019,59.8716501 18.6729521,60.395958 Z M61.7941297,80.828935 C66.0903021,79.1880673 70.011789,76.6572586 73.3345238,73.3345238 C77.0738491,69.5951985 79.8074823,65.0997673 81.3988786,60.1763694 C81.5687413,59.6508553 81.2804287,59.087141 80.7549146,58.9172784 C80.2294004,58.7474158 79.6656862,59.0357283 79.4958235,59.5612424 C78.0012624,64.1850555 75.4344207,68.4061997 71.9203102,71.9203102 C68.7975381,75.0430823 65.1150808,77.4196286 61.0805326,78.9605723 C60.5645985,79.1576267 60.3060954,79.7356181 60.5031498,80.2515522 C60.7002042,80.7674863 61.2781956,81.0259894 61.7941297,80.828935 Z M80.5797703,37.5732403 C78.9357482,33.5226707 76.4923922,29.8233446 73.3345238,26.6654762 C70.3943898,23.7253422 66.9841246,21.4036935 63.2549614,19.7696717 C62.7491069,19.5480195 62.1593462,19.7784109 61.937694,20.2842654 C61.7160418,20.7901199 61.9464332,21.3798806 62.4522877,21.6015328 C65.9542924,23.1360197 69.15696,25.3163396 71.9203102,28.0796898 C74.8882057,31.0475853 77.1827065,34.5215394 78.7265944,38.3253967 C78.9342967,38.8371371 79.5175202,39.0836087 80.0292605,38.8759065 C80.5410009,38.6682042 80.7874725,38.0849807 80.5797703,37.5732403 Z M40.4822992,18.3958209 C35.3043186,19.9503922 30.5726127,22.7583398 26.6654762,26.6654762 C23.2464067,30.0845458 20.6663794,34.1371542 19.0316542,38.5776083 C18.840853,39.0958875 19.1063264,39.6707107 19.6246056,39.861512 C20.1428848,40.0523132 20.717708,39.7868398 20.9085093,39.2685606 C22.4436987,35.0984785 24.8664213,31.2929583 28.0796898,28.0796898 C31.7514364,24.4079432 36.1943565,21.7713705 41.0573945,20.3113536 C41.5863542,20.1525454 41.8864214,19.5949994 41.7276132,19.0660396 C41.568805,18.5370799 41.011259,18.2370127 40.4822992,18.3958209 Z" id="Oval-9" fill="#FABB2E" fill-rule="nonzero"></path>
                <path d="M64.1598248,33.0521542 L33.0521542,64.1598248 C32.6644638,64.5475152 32.6575171,65.184429 33.0460689,65.5729809 L34.4270191,66.9539311 C34.8107331,67.337645 35.4482626,67.3397585 35.8401752,66.9478458 L66.9478458,35.8401752 C67.3355362,35.4524848 67.3424829,34.815571 66.9539311,34.4270191 L65.5729809,33.0460689 C65.1892669,32.662355 64.5517374,32.6602415 64.1598248,33.0521542 Z M62.7456112,31.6379407 C63.9156714,30.4678804 65.8195321,30.464193 66.9871944,31.6318554 L68.3681446,33.0128056 C69.5403583,34.1850193 69.5282601,36.088188 68.3620593,37.2543888 L37.2543888,68.3620593 C36.0843286,69.5321196 34.1804679,69.535807 33.0128056,68.3681446 L31.6318554,66.9871944 C30.4596417,65.8149807 30.4717399,63.911812 31.6379407,62.7456112 L62.7456112,31.6379407 Z M34.4270191,33.0460689 L33.0460689,34.4270191 C32.662355,34.8107331 32.6602415,35.4482626 33.0521542,35.8401752 L64.1598248,66.9478458 C64.5475152,67.3355362 65.184429,67.3424829 65.5729809,66.9539311 L66.9539311,65.5729809 C67.337645,65.1892669 67.3397585,64.5517374 66.9478458,64.1598248 L35.8401752,33.0521542 C35.4524848,32.6644638 34.815571,32.6575171 34.4270191,33.0460689 Z M37.2543888,31.6379407 L68.3620593,62.7456112 C69.5321196,63.9156714 69.535807,65.8195321 68.3681446,66.9871944 L66.9871944,68.3681446 C65.8149807,69.5403583 63.911812,69.5282601 62.7456112,68.3620593 L31.6379407,37.2543888 C30.4678804,36.0843286 30.464193,34.1804679 31.6318554,33.0128056 L33.0128056,31.6318554 C34.1850193,30.4596417 36.088188,30.4717399 37.2543888,31.6379407 Z" id="Combined-Shape" fill="#FABB2E" fill-rule="nonzero"></path>
                <path d="M51.9714286,48.0285714 L51.9714286,28.0035552 C51.9714286,27.4552782 51.5259746,27 50.9764792,27 L49.0235208,27 C48.4808673,27 48.0285714,27.449307 48.0285714,28.0035552 L48.0285714,48.0285714 L28.0035552,48.0285714 C27.4552782,48.0285714 27,48.4740254 27,49.0235208 L27,50.9764792 C27,51.5191327 27.449307,51.9714286 28.0035552,51.9714286 L48.0285714,51.9714286 L48.0285714,71.9964448 C48.0285714,72.5447218 48.4740254,73 49.0235208,73 L50.9764792,73 C51.5191327,73 51.9714286,72.550693 51.9714286,71.9964448 L51.9714286,51.9714286 L71.9964448,51.9714286 C72.5447218,51.9714286 73,51.5259746 73,50.9764792 L73,49.0235208 C73,48.4808673 72.550693,48.0285714 71.9964448,48.0285714 L51.9714286,48.0285714 Z" id="Combined-Shape" fill="#FFFFFF" transform="translate(50.000000, 50.000000) rotate(45.000000) translate(-50.000000, -50.000000) "></path>
            </g>
        </g>
    </g>
</svg>