<?xml version="1.0" encoding="UTF-8"?>
<svg width="46px" height="46px" viewBox="0 0 46 46" version="1.1" xmlns="http://www.w3.org/2000/svg" xmlns:xlink="http://www.w3.org/1999/xlink">
    <!-- Generator: Sketch 43.1 (39012) - http://www.bohemiancoding.com/sketch -->
    <title>Invest</title>
    <desc>Created with Sketch.</desc>
    <defs></defs>
    <g id="Icons" stroke="none" stroke-width="1" fill="none" fill-rule="evenodd">
        <g id="Illustrations" transform="translate(-337.000000, -240.000000)">
            <g id="1_Product-icons" transform="translate(147.000000, 171.000000)">
                <g id="Invest" transform="translate(190.000000, 69.000000)">
                    <path d="M46,23 C46,35.7025714 35.7025714,46 23,46 C10.2974286,46 0,35.7025714 0,23 C0,10.2974286 10.2974286,0 23,0 C35.7025714,0 46,10.2974286 46,23" id="Fill-1-Copy-4" fill="#F3F6F6"></path>
                    <g id="ProductIcon/48px/Invest" transform="translate(12.000000, 11.000000)">
                        <g>
                            <path d="M3,22.5838099 L3,19.4161901 C3,18.9101923 2.55228475,18.5 2,18.5 C1.44771525,18.5 1,18.9101923 1,19.4161901 L1,22.5838099 C1,23.0898077 1.44771525,23.5 2,23.5 C2.55228475,23.5 3,23.0898077 3,22.5838099 Z" id="Stroke-1" fill="#D41B51" fill-rule="nonzero"></path>
                            <path d="M9,22.6026124 L9,16.3973876 C9,15.9017741 8.55228475,15.5 8,15.5 C7.44771525,15.5 7,15.9017741 7,16.3973876 L7,22.6026124 C7,23.0982259 7.44771525,23.5 8,23.5 C8.55228475,23.5 9,23.0982259 9,22.6026124 Z" id="Stroke-3" fill="#545A92" fill-rule="nonzero"></path>
                            <path d="M15.5,22.6109063 L15.5,13.3890937 C15.5,12.8980608 15.0522847,12.5 14.5,12.5 C13.9477153,12.5 13.5,12.8980608 13.5,13.3890937 L13.5,22.6109063 C13.5,23.1019392 13.9477153,23.5 14.5,23.5 C15.0522847,23.5 15.5,23.1019392 15.5,22.6109063 Z" id="Stroke-5" fill="#800F3E" fill-rule="nonzero"></path>
                            <path d="M22,22.6155771 L22,10.3844229 C22,9.89596961 21.5522847,9.5 21,9.5 C20.4477153,9.5 20,9.89596961 20,10.3844229 L20,22.6155771 C20,23.1040304 20.4477153,23.5 21,23.5 C21.5522847,23.5 22,23.1040304 22,22.6155771 Z" id="Stroke-7" fill="#22ACCB" fill-rule="nonzero"></path>
                            <path d="M1.32769263,14.3666772 L22.5773002,3.06299192 C23.0182014,2.82845541 23.1858739,2.2801875 22.9518073,1.83840127 C22.7177406,1.39661504 22.1705709,1.22860595 21.7296697,1.46314247 L0.480062174,12.7668277 C0.0391609327,13.0013642 -0.128511601,13.5496321 0.105555087,13.9914184 C0.339621775,14.4332046 0.886791392,14.6012137 1.32769263,14.3666772 Z" id="Stroke-9" fill="#F9B73D" fill-rule="nonzero"></path>
                            <path d="M20.3943764,5.07856334 C20.2567748,5.55936698 20.5342141,6.06090744 21.0140546,6.19878532 C21.4938951,6.33666319 21.9944309,6.05866693 22.1320326,5.57786329 L23.014985,2.49267739 C23.1525913,2.01185781 22.8751289,1.51030361 22.3952661,1.37244371 L19.3162604,0.487875547 C18.8364135,0.350020219 18.3358907,0.628039997 18.1983116,1.1088501 C18.0607324,1.58966021 18.3381952,2.09118763 18.8180422,2.22904296 L21.0281673,2.86399027 L20.3943764,5.07856334 Z" id="Stroke-11" fill="#F9B73D" fill-rule="nonzero"></path>
                        </g>
                    </g>
                </g>
            </g>
        </g>
    </g>
</svg>