<?xml version="1.0" encoding="UTF-8"?>
<svg width="46px" height="46px" viewBox="0 0 46 46" version="1.1" xmlns="http://www.w3.org/2000/svg" xmlns:xlink="http://www.w3.org/1999/xlink">
    <!-- Generator: Sketch 43.1 (39012) - http://www.bohemiancoding.com/sketch -->
    <title>Loans</title>
    <desc>Created with Sketch.</desc>
    <defs></defs>
    <g id="Icons" stroke="none" stroke-width="1" fill="none" fill-rule="evenodd">
        <g id="Illustrations" transform="translate(-481.000000, -240.000000)">
            <g id="1_Product-icons" transform="translate(147.000000, 171.000000)">
                <g id="Loans" transform="translate(334.000000, 69.000000)">
                    <path d="M46,23 C46,35.7025714 35.7025714,46 23,46 C10.2974286,46 0,35.7025714 0,23 C0,10.2974286 10.2974286,0 23,0 C35.7025714,0 46,10.2974286 46,23" id="Fill-1-Copy-5" fill="#F3F6F6"></path>
                    <g id="ProductIcon/48px/Loans" transform="translate(11.000000, 11.000000)">
                        <g>
                            <path d="M16.1810443,4.18102805 C16.1810443,6.49006401 14.3091495,8.36202353 12.0000489,8.36202353 C9.69094827,8.36202353 7.81905339,6.49006401 7.81905339,4.18102805 C7.81905339,1.87187833 9.69089914,3.25791855e-05 12.0000489,3.25791855e-05 C14.3091986,3.25791855e-05 16.1810443,1.87187833 16.1810443,4.18102805 Z M14.3348905,4.18102805 C14.3348905,2.89148095 13.289596,1.84618643 12.0000489,1.84618643 C10.7105018,1.84618643 9.66520724,2.89148095 9.66520724,4.18102805 C9.66520724,5.47047566 10.7105652,6.51586968 12.0000489,6.51586968 C13.2895326,6.51586968 14.3348905,5.47047566 14.3348905,4.18102805 Z" id="Stroke-1" fill="#F9B73D" fill-rule="nonzero" style="mix-blend-mode: multiply;"></path>
                            <path d="M8.06304977,19.2771367 C7.82570694,19.2771367 7.59748411,19.3685579 7.42577853,19.5324139 L4.41122649,22.409156 C4.04241093,22.7611112 4.0287429,23.3454113 4.38069809,23.7142269 C4.73265329,24.0830425 5.31695343,24.0967105 5.68576898,23.7447553 L8.43281472,21.1232905 L15.8101336,21.1232905 C16.4197501,21.1293835 17.2067099,20.5384958 19.7150367,18.5033617 C19.7907258,18.4419513 19.8672324,18.3797399 19.944518,18.3167619 C20.6461179,17.7450472 21.3840296,17.1331089 22.1131451,16.5212513 C22.3682654,16.30716 22.6041071,16.1083345 22.8149983,15.9298382 C22.9417341,15.8225701 23.0321419,15.7457858 23.0805425,15.7045542 C24.1492821,14.7986182 24.2925089,13.1997618 23.4003633,12.1165694 C22.4851096,11.0054443 20.8352406,10.8641716 19.7444185,11.8033776 L19.7064117,11.8379905 L18.1747013,13.3130131 C17.8074862,13.6666378 17.796469,14.250994 18.1500937,14.6182091 C18.5037184,14.9854242 19.0880745,14.9964414 19.4552896,14.6428167 L20.9647606,13.1892105 C21.2709351,12.9401627 21.7228094,12.9837043 21.9753611,13.2903039 C22.2257377,13.594297 22.1855388,14.043042 21.885069,14.2977416 C21.836398,14.3391998 21.7474806,14.4147184 21.622295,14.5206743 C21.413317,14.6975513 21.1794486,14.8947133 20.9263954,15.1070699 C20.2035864,15.7136352 19.4722512,16.3201197 18.7783026,16.8855996 C18.7020169,16.9477627 18.6265221,17.0091515 18.551858,17.0697302 C17.7054926,17.7564298 16.9873638,18.3217676 16.4413441,18.7272977 C16.1431441,18.9487716 15.9024483,19.1178587 15.729954,19.227005 C15.6995733,19.2462286 15.6722185,19.2629999 15.6483881,19.2771367 L8.06304977,19.2771367 Z" id="Stroke-3" fill="#D41B51" fill-rule="nonzero" style="mix-blend-mode: multiply;"></path>
                            <path d="M0.226317298,18.9342 L4.35165666,23.6822905 C4.68601887,24.0671272 5.26904478,24.1080449 5.65388149,23.7736827 C6.03871819,23.4393205 6.07963586,22.8562946 5.74527365,22.4714579 L1.61993429,17.7233674 C1.28557208,17.3385307 0.702546169,17.297613 0.317709465,17.6319752 C-0.0671272398,17.9663374 -0.108044907,18.5493633 0.226317298,18.9342 Z" id="Stroke-5" fill="#22ACCB" fill-rule="nonzero" style="mix-blend-mode: multiply;"></path>
                            <path d="M0.328799863,17.6224682 C-0.0612514542,17.9507323 -0.11133986,18.533042 0.216924276,18.9230933 C0.545188413,19.3131447 1.12749814,19.3632331 1.51754946,19.0349689 L6.74764901,14.6333581 L6.79430482,14.5912995 C7.22949752,14.1712825 7.8109044,13.9365014 8.41589864,13.9365014 L13.9124959,13.9365014 C14.4102059,13.9365014 14.8136905,14.3399859 14.8136905,14.8376959 C14.8136905,15.3354059 14.4102059,15.7388905 13.9124959,15.7388905 L10.5317538,15.7388905 C10.0219525,15.7388905 9.60867692,16.1521661 9.60867692,16.6619674 C9.60867692,17.1717687 10.0219525,17.5850443 10.5317538,17.5850443 L13.9124959,17.5850443 C15.4298085,17.5850443 16.6598443,16.3550085 16.6598443,14.8376959 C16.6598443,13.3203833 15.4298085,12.0903475 13.9124959,12.0903475 L8.41589864,12.0903475 C7.34377075,12.0903475 6.31300294,12.5021386 5.53635304,13.2398322 L0.328799863,17.6224682 Z" id="Stroke-7" fill="#545A92" fill-rule="nonzero" style="mix-blend-mode: multiply;"></path>
                        </g>
                    </g>
                </g>
            </g>
        </g>
    </g>
</svg>