<?xml version="1.0" encoding="UTF-8"?>
<svg width="222px" height="36px" viewBox="0 0 222 36" version="1.1" xmlns="http://www.w3.org/2000/svg" xmlns:xlink="http://www.w3.org/1999/xlink">
    <!-- Generator: Sketch 44.1 (41455) - http://www.bohemiancoding.com/sketch -->
    <title>Logo/Primary/Medium</title>
    <desc>Created with Sketch.</desc>
    <defs>
        <polygon id="path-1" points="1.86666883e-20 0.05325 1.86666883e-20 19.625 10.0696613 19.625 20.1393226 19.625 20.1393226 0.05325 0 0.05325"></polygon>
        <polygon id="path-3" points="0.865807547 9.76996262e-15 28.9143358 9.76996262e-15 28.9143358 28.008475 0.865807547 28.008475 0.865807547 0"></polygon>
        <polygon id="path-5" points="19.8339623 0.121 19.8339623 20.040625 0.860022642 20.040625 0.860022642 0.121 19.8339623 0.121"></polygon>
    </defs>
    <g id="Symbols" stroke="none" stroke-width="1" fill="none" fill-rule="evenodd">
        <g id="Logo/Primary/Medium">
            <g id="Logo" transform="translate(1.000000, 1.000000)">
                <g id="Group-3" transform="translate(0.000000, 13.375000)">
                    <mask id="mask-2" fill="white">
                        <use xlink:href="#path-1"></use>
                    </mask>
                    <g id="Clip-2"></g>
                    <path d="M10.4812849,19.625 C4.70188868,19.625 -0.000413207548,14.929375 -0.000413207548,9.1585 C-0.000413207548,5.400625 2.03394528,1.91225 5.30792642,0.05325 L7.11502075,3.2295 C4.98286981,4.4395 3.65785094,6.711 3.65785094,9.1585 C3.65785094,12.915 6.71971887,15.971625 10.4812849,15.971625 C13.2304925,15.971625 15.6987189,14.338125 16.7703038,11.8095 L20.1393226,13.232625 C18.4933792,17.115625 14.7028887,19.625 10.4812849,19.625" id="Fill-1" fill="#D40C48" mask="url(#mask-2)"></path>
                </g>
                <path d="M20.1389094,26.607625 L16.7698906,25.1845 C17.1252491,24.34575 17.305683,23.453375 17.305683,22.5335 C17.305683,18.775625 14.2438151,15.719 10.4808717,15.719 C9.29909811,15.719 8.13523019,16.025625 7.11598491,16.6045 L5.30751321,13.42825 C6.87770189,12.53725 8.66689057,12.065625 10.4808717,12.065625 C16.2616453,12.065625 20.9639472,16.76125 20.9639472,22.5335 C20.9639472,23.94425 20.6857208,25.315125 20.1389094,26.607625" id="Fill-4" fill="#F9BB2E"></path>
                <g id="Group-8" transform="translate(4.132075, 0.000000)">
                    <mask id="mask-4" fill="white">
                        <use xlink:href="#path-3"></use>
                    </mask>
                    <g id="Clip-7"></g>
                    <path d="M14.8900717,3.6531 C9.17403396,3.6531 4.5240717,8.296475 4.5240717,14.0041 C4.5240717,19.711725 9.17403396,24.3551 14.8900717,24.3551 C20.6061094,24.3551 25.2560717,19.711725 25.2560717,14.0041 C25.2560717,8.296475 20.6061094,3.6531 14.8900717,3.6531 M14.8900717,28.008475 C7.15758113,28.008475 0.865807547,21.7261 0.865807547,14.0041 C0.865807547,6.2821 7.15758113,-0.000275 14.8900717,-0.000275 C22.6225623,-0.000275 28.9143358,6.2821 28.9143358,14.0041 C28.9143358,21.7261 22.6225623,28.008475 14.8900717,28.008475" id="Fill-6" fill="#2AAACD" mask="url(#mask-4)"></path>
                </g>
                <path d="M19.0221472,28.0082 C11.2896566,28.0082 4.99788302,21.725825 4.99788302,14.003825 C4.99788302,12.99595 5.81741132,12.177825 6.82701509,12.177825 C7.83799623,12.177825 8.65614717,12.99595 8.65614717,14.003825 C8.65614717,19.71145 13.3061094,24.354825 19.0221472,24.354825 C20.0317509,24.354825 20.8512792,25.17295 20.8512792,26.1822 C20.8512792,27.190075 20.0317509,28.0082 19.0221472,28.0082" id="Fill-9" fill="#55538F"></path>
                <path d="M185.0331,21.4880875 C182.391326,21.4880875 180.250911,19.3499625 180.250911,16.7127125 C180.250911,14.0740875 182.391326,11.9359625 185.0331,11.9359625 C187.674874,11.9359625 189.815289,14.0740875 189.815289,16.7127125 C189.815289,19.3499625 187.674874,21.4880875 185.0331,21.4880875 M185.0331,6.5088375 C179.390062,6.5088375 174.815855,11.0779625 174.815855,16.7127125 C174.815855,22.3474625 179.390062,26.9152125 185.0331,26.9152125 C190.676138,26.9152125 195.250345,22.3474625 195.250345,16.7127125 C195.250345,11.0779625 190.676138,6.5088375 185.0331,6.5088375" id="Fill-11" fill="#D30D47"></path>
                <path d="M172.1778,6.996 L168.286762,6.996 C167.702762,6.996 167.362555,7.044125 167.118762,7.5295 L162.253932,18.51025 L162.205725,18.51025 L157.291309,7.5295 C157.143932,7.238 156.901517,6.996 156.463517,6.996 L152.084894,6.996 C151.356272,6.996 150.966479,7.627125 151.258479,8.25825 L159.187932,25.069 L156.306498,31.68825 C155.966291,32.3675 156.404291,33 157.134291,33 L161.317328,33 C161.705743,33 161.997743,32.7085 162.145121,32.417 L173.005592,8.25825 C173.3458,7.627125 172.957385,6.996 172.1778,6.996" id="Fill-13" fill="#D30D47"></path>
                <path d="M136.573772,14.2828125 C136.817564,12.4375625 138.423564,10.9800625 140.369772,10.9800625 C142.218187,10.9800625 143.773225,12.4856875 143.920602,14.2828125 L136.573772,14.2828125 Z M140.514394,6.5099375 C134.725357,6.5099375 130.590526,11.2220625 130.590526,16.7124375 C130.590526,22.2990625 134.725357,26.9149375 140.562602,26.9149375 C143.628602,26.9149375 145.853036,26.0143125 147.44113,24.6585625 C147.848828,24.3093125 147.917696,23.7029375 147.610545,23.2629375 L146.218036,21.2691875 C145.91364,20.8319375 145.335149,20.7026875 144.862715,20.9474375 C143.693338,21.5524375 142.340772,21.9113125 140.529545,21.9113125 C137.707338,21.9113125 136.283149,20.5143125 136.135772,18.5233125 L148.591225,18.5233125 C149.027847,18.5233125 149.465847,18.1836875 149.515432,17.6969375 C149.56364,17.3573125 149.613225,16.7248125 149.613225,16.3851875 C149.613225,11.1381875 146.376432,6.5099375 140.514394,6.5099375 L140.514394,6.5099375 Z" id="Fill-15" fill="#D30D47"></path>
                <path d="M69.9817943,6.5093875 C66.4805491,6.5093875 63.9489642,8.6475125 63.1211717,9.5220125 C61.5165491,7.5777625 59.5703415,6.5093875 56.7963415,6.5093875 C53.9300585,6.5093875 51.8998321,7.8486375 50.8213604,8.8317625 C50.4907943,8.3161375 50.089983,7.5585125 50.089983,7.5585125 C49.9123038,7.2780125 49.6574925,6.9961375 49.2194925,6.9961375 L46.970266,6.9961375 C46.4826811,6.9961375 46.0446811,7.3838875 46.0446811,7.9187625 L46.0446811,25.5063875 C46.0446811,25.9917625 46.4826811,26.4290125 46.970266,26.4290125 L50.9095113,26.4290125 C51.3970962,26.4290125 51.8350962,25.9917625 51.8350962,25.5063875 L51.8350962,14.8171375 C52.3226811,13.5053875 53.4906811,11.7563875 55.9217189,11.7563875 C58.4023415,11.7563875 59.522134,13.3596375 59.522134,15.8855125 L59.522134,25.5063875 C59.522134,25.9917625 59.9105491,26.4290125 60.4463415,26.4290125 L64.0949642,26.4290125 C64.5825491,26.4290125 65.0205491,25.9917625 65.0205491,25.5063875 L65.0205491,15.6435125 C65.0205491,14.7690125 64.9709642,13.7968875 64.9709642,13.7968875 C64.9709642,13.7968875 66.2353792,11.7563875 69.0589642,11.7563875 C71.4900019,11.7563875 72.7075868,13.3596375 72.7075868,15.8855125 L72.7075868,25.5063875 C72.7075868,25.9917625 73.0960019,26.4290125 73.630417,26.4290125 L77.572417,26.4290125 C78.1068321,26.4290125 78.4952472,25.9917625 78.4952472,25.5063875 L78.4952472,16.2265125 C78.4952472,11.1252625 76.2088321,6.5093875 69.9817943,6.5093875" id="Fill-17" fill="#D30D47"></path>
                <g id="Group-21" transform="translate(198.339623, 6.875000)">
                    <mask id="mask-6" fill="white">
                        <use xlink:href="#path-5"></use>
                    </mask>
                    <g id="Clip-20"></g>
                    <path d="M18.9089283,0.121 L15.2120981,0.121 C14.4325132,0.121 14.1418906,0.314875 14.1418906,1.043625 L14.1418906,11.1485 C13.8498906,12.898875 12.2934755,14.79225 10.2480981,14.79225 C8.01126792,14.79225 6.69726792,13.189 6.69726792,10.615 L6.69726792,1.043625 C6.69726792,0.510125 6.25926792,0.121 5.77306038,0.121 L1.78423019,0.121 C1.29664528,0.121 0.860022642,0.510125 0.860022642,1.043625 L0.860022642,10.46925 C0.860022642,15.42475 3.04864528,20.040625 9.08285283,20.040625 C12.2728151,20.040625 14.0427208,18.640875 15.057834,17.71825 L15.057834,17.73475 C15.3884,18.250375 15.7892113,19.008 15.7892113,19.008 C15.9668906,19.2885 16.2217019,19.570375 16.6597019,19.570375 L18.9089283,19.570375 C19.3965132,19.570375 19.8345132,19.182625 19.8345132,18.64775 L19.8345132,1.043625 C19.8345132,0.510125 19.3965132,0.121 18.9089283,0.121" id="Fill-19" fill="#D30D47" mask="url(#mask-6)"></path>
                </g>
                <path d="M117.981085,6.5093875 C114.850349,6.5093875 112.686519,7.9613875 111.628708,8.8950125 L111.616311,8.8317625 C111.284368,8.3161375 110.883557,7.5585125 110.883557,7.5585125 C110.707255,7.2780125 110.452443,6.9961375 110.014443,6.9961375 L107.765217,6.9961375 C107.277632,6.9961375 106.839632,7.3838875 106.839632,7.9187625 L106.839632,25.5063875 C106.839632,25.9917625 107.277632,26.4290125 107.765217,26.4290125 L111.704462,26.4290125 C112.192047,26.4290125 112.62867,25.9917625 112.62867,25.5063875 L112.62867,14.7126375 C113.156198,13.4146375 114.690575,11.7563875 117.153292,11.7563875 C119.489292,11.7563875 120.801915,13.3596375 120.801915,15.8855125 L120.801915,25.5063875 C120.801915,25.9917625 121.193085,26.4290125 121.7275,26.4290125 L125.71633,26.4290125 C126.203915,26.4290125 126.641915,25.9917625 126.641915,25.5063875 L126.641915,16.1783875 C126.641915,11.1252625 124.161292,6.5093875 117.981085,6.5093875" id="Fill-22" fill="#D30D47"></path>
                <path d="M92.6650981,21.4880875 C90.0233245,21.4880875 87.8829094,19.3499625 87.8829094,16.7127125 C87.8829094,14.0740875 90.0233245,11.9359625 92.6650981,11.9359625 C95.3068717,11.9359625 97.4472868,14.0740875 97.4472868,16.7127125 C97.4472868,19.3499625 95.3068717,21.4880875 92.6650981,21.4880875 M92.6650981,6.5088375 C87.0220604,6.5088375 82.4478528,11.0765875 82.4478528,16.7127125 C82.4478528,22.3474625 87.0220604,26.9152125 92.6650981,26.9152125 C98.3081358,26.9152125 102.882343,22.3474625 102.882343,16.7127125 C102.882343,11.0765875 98.3081358,6.5088375 92.6650981,6.5088375" id="Fill-24" fill="#D30D47"></path>
            </g>
        </g>
    </g>
</svg>