<?xml version="1.0" encoding="UTF-8"?>
<svg width="434px" height="66px" viewBox="0 0 434 66" version="1.1" xmlns="http://www.w3.org/2000/svg" xmlns:xlink="http://www.w3.org/1999/xlink">
    <!-- Generator: Sketch 43.2 (39069) - http://www.bohemiancoding.com/sketch -->
    <title>MoneYou_Logo_Horizontal</title>
    <desc>Created with Sketch.</desc>
    <defs></defs>
    <g id="Page-1" stroke="none" stroke-width="1" fill="none" fill-rule="evenodd">
        <g id="MoneYou_Logo_Horizontal">
            <path d="M21.166,65.815 C9.688,65.815 0.35,56.477 0.35,44.998 C0.35,37.525 4.389,30.587 10.89,26.891 L14.481,33.208 C10.246,35.615 7.615,40.132 7.615,44.998 C7.615,52.47 13.694,58.549 21.166,58.549 C26.625,58.549 31.527,55.3 33.655,50.272 L40.346,53.102 C37.078,60.825 29.55,65.815 21.166,65.815" id="Fill-1" fill="#C4224C"></path>
            <path d="M40.346,53.102 L33.654,50.272 C34.36,48.603 34.718,46.829 34.718,44.998 C34.718,37.526 28.639,31.447 21.166,31.447 C18.817,31.447 16.507,32.055 14.481,33.208 L10.89,26.891 C14.007,25.119 17.561,24.182 21.166,24.182 C32.645,24.182 41.983,33.52 41.983,44.998 C41.983,47.805 41.433,50.533 40.346,53.102" id="Fill-2" fill="#F2B445"></path>
            <path d="M38.128,7.451 C26.777,7.451 17.542,16.685 17.542,28.037 C17.542,39.387 26.777,48.623 38.128,48.623 C49.479,48.623 58.715,39.387 58.715,28.037 C58.715,16.685 49.479,7.451 38.128,7.451 Z M38.128,55.887 C22.771,55.887 10.276,43.393 10.276,28.037 C10.276,12.679 22.771,0.185 38.128,0.185 C53.485,0.185 65.98,12.679 65.98,28.037 C65.98,43.393 53.485,55.887 38.128,55.887 L38.128,55.887 Z" id="Fill-3" fill="#34A5BB"></path>
            <path d="M38.128,55.887 C22.771,55.887 10.276,43.393 10.276,28.037 C10.276,26.03 11.903,24.404 13.909,24.404 C15.915,24.404 17.542,26.03 17.542,28.037 C17.542,39.387 26.777,48.623 38.128,48.623 C40.134,48.623 41.761,50.249 41.761,52.254 C41.761,54.261 40.134,55.887 38.128,55.887" id="Fill-4" fill="#4E5282"></path>
            <path d="M367.832,42.92 C362.587,42.92 358.334,38.668 358.334,33.422 C358.334,28.176 362.587,23.923 367.832,23.923 C373.078,23.923 377.33,28.176 377.33,33.422 C377.33,38.668 373.078,42.92 367.832,42.92 Z M367.832,13.13 C356.626,13.13 347.541,22.215 347.541,33.422 C347.541,44.628 356.626,53.713 367.832,53.713 C379.039,53.713 388.123,44.628 388.123,33.422 C388.123,22.215 379.039,13.13 367.832,13.13 L367.832,13.13 Z" id="Fill-5" fill="#C3224C"></path>
            <path d="M342.301,14.098 L334.572,14.098 C333.414,14.098 332.738,14.194 332.253,15.16 L322.592,36.997 L322.496,36.997 L312.736,15.16 C312.444,14.581 311.962,14.098 311.093,14.098 L302.396,14.098 C300.949,14.098 300.175,15.353 300.756,16.61 L316.502,50.043 L310.779,63.206 C310.104,64.558 310.973,65.815 312.423,65.815 L320.733,65.815 C321.504,65.815 322.084,65.234 322.376,64.655 L343.944,16.61 C344.62,15.353 343.85,14.098 342.301,14.098" id="Fill-6" fill="#C3224C"></path>
            <path d="M271.59,28.59 C272.075,24.919 275.264,22.021 279.129,22.021 C282.799,22.021 285.89,25.016 286.182,28.59 L271.59,28.59 Z M279.417,13.13 C267.919,13.13 259.708,22.503 259.708,33.422 C259.708,44.534 267.919,53.713 279.513,53.713 C285.603,53.713 290.019,51.922 293.172,49.225 C293.983,48.532 294.119,47.326 293.509,46.451 L290.743,42.484 C290.139,41.617 288.991,41.358 288.052,41.844 C285.729,43.048 283.045,43.761 279.447,43.761 C273.841,43.761 271.013,40.985 270.721,37.024 L295.456,37.024 C296.325,37.024 297.194,36.348 297.293,35.38 C297.389,34.705 297.486,33.448 297.486,32.772 C297.486,22.336 291.058,13.13 279.417,13.13 L279.417,13.13 Z" id="Fill-7" fill="#C3224C"></path>
            <path d="M139.336,13.13 C132.381,13.13 127.355,17.382 125.712,19.123 C122.523,15.256 118.659,13.13 113.15,13.13 C107.457,13.13 103.426,15.794 101.283,17.75 C100.626,16.724 99.83,15.216 99.83,15.216 C99.478,14.659 98.971,14.098 98.102,14.098 L93.634,14.098 C92.667,14.098 91.797,14.872 91.797,15.934 L91.797,50.912 C91.797,51.878 92.667,52.747 93.634,52.747 L101.458,52.747 C102.427,52.747 103.296,51.878 103.296,50.912 L103.296,29.654 C104.263,27.045 106.583,23.566 111.412,23.566 C116.339,23.566 118.563,26.755 118.563,31.779 L118.563,50.912 C118.563,51.878 119.334,52.747 120.397,52.747 L127.644,52.747 C128.612,52.747 129.481,51.878 129.481,50.912 L129.481,31.297 C129.481,29.556 129.383,27.625 129.383,27.625 C129.383,27.625 131.896,23.566 137.502,23.566 C142.332,23.566 144.749,26.755 144.749,31.779 L144.749,50.912 C144.749,51.878 145.52,52.747 146.583,52.747 L154.41,52.747 C155.473,52.747 156.244,51.878 156.244,50.912 L156.244,32.457 C156.244,22.311 151.704,13.13 139.336,13.13" id="Fill-8" fill="#d30d47"></path>
            <path d="M431.813,14.098 L424.472,14.098 C422.923,14.098 422.346,14.484 422.346,15.934 L422.346,36.031 C421.765,39.51 418.675,43.278 414.613,43.278 C410.171,43.278 407.56,40.088 407.56,34.968 L407.56,15.934 C407.56,14.872 406.69,14.098 405.727,14.098 L397.804,14.098 C396.836,14.098 395.966,14.872 395.966,15.934 L395.966,34.679 C395.966,44.534 400.313,53.713 412.297,53.713 C418.633,53.713 422.149,50.929 424.163,49.095 L424.165,49.128 C424.821,50.154 425.618,51.662 425.618,51.662 C425.97,52.219 426.477,52.78 427.346,52.78 L431.813,52.78 C432.78,52.78 433.65,52.007 433.65,50.944 L433.65,15.934 C433.65,14.872 432.78,14.098 431.813,14.098" id="Fill-9" fill="#C3224C"></path>
            <path d="M234.664,13.13 C228.445,13.13 224.149,16.02 222.049,17.877 L222.022,17.75 C221.366,16.724 220.569,15.216 220.569,15.216 C220.218,14.659 219.711,14.098 218.841,14.098 L214.374,14.098 C213.407,14.098 212.537,14.872 212.537,15.934 L212.537,50.912 C212.537,51.878 213.407,52.747 214.374,52.747 L222.198,52.747 C223.166,52.747 224.036,51.878 224.036,50.912 L224.036,29.445 C225.082,26.863 228.129,23.566 233.021,23.566 C237.66,23.566 240.268,26.755 240.268,31.779 L240.268,50.912 C240.268,51.878 241.042,52.747 242.104,52.747 L250.027,52.747 C250.995,52.747 251.864,51.878 251.864,50.912 L251.864,32.36 C251.864,22.311 246.938,13.13 234.664,13.13" id="Fill-10" fill="#C3224C"></path>
            <path d="M184.386,42.92 C179.14,42.92 174.888,38.668 174.888,33.422 C174.888,28.176 179.14,23.923 184.386,23.923 C189.632,23.923 193.884,28.176 193.884,33.422 C193.884,38.668 189.632,42.92 184.386,42.92 Z M184.386,13.13 C173.179,13.13 164.095,22.215 164.095,33.422 C164.095,44.628 173.179,53.713 184.386,53.713 C195.592,53.713 204.677,44.628 204.677,33.422 C204.677,22.215 195.592,13.13 184.386,13.13 L184.386,13.13 Z" id="Fill-11" fill="#C3224C"></path>
        </g>
    </g>
</svg>
