<svg xmlns="http://www.w3.org/2000/svg" viewBox="0 0 190 190"><title>Artboard 1</title><g style="isolation:isolate"><g id="Loans"><g style="mix-blend-mode:multiply"><circle cx="95" cy="47" r="20" style="fill:none;stroke:#f8b73d;stroke-linecap:round;stroke-linejoin:round;stroke-width:14px"/></g><path d="M52.33,163l18.51-17.66h47.61c3.13.27,40.91-31.91,40.91-31.91a10.09,10.09,0,0,0,1.26-14.11h0a10.09,10.09,0,0,0-14.37-1.23l-9.4,9.05" style="fill:none;stroke:#d41b51;stroke-linecap:round;stroke-linejoin:round;stroke-width:14px;mix-blend-mode:multiply"/><line x1="27" y1="133.85" x2="52.33" y2="163" style="fill:none;stroke:#22accb;stroke-linecap:round;stroke-linejoin:round;stroke-width:14px;mix-blend-mode:multiply"/><g style="mix-blend-mode:multiply"><path d="M86,123.62h20.75a11.2,11.2,0,0,0,11.2-11.2h0a11.2,11.2,0,0,0-11.2-11.2H73a20,20,0,0,0-13.89,5.61L27,133.85" style="fill:none;stroke:#545a92;stroke-linecap:round;stroke-linejoin:round;stroke-width:14px"/></g></g></g></svg>