<svg xmlns="http://www.w3.org/2000/svg" viewBox="0 0 190 190"><title>Artboard 1</title><g style="isolation:isolate"><g id="Savings_2" data-name="Savings 2"><path d="M27.3,91.32h0c0,21.88,13.36,40.84,32.45,49.37v0L51,163" style="fill:none;stroke:#d41b51;stroke-linecap:round;stroke-linejoin:round;stroke-width:14.1146652966427px;mix-blend-mode:multiply"/><path d="M59.75,140.68a89.54,89.54,0,0,0,28.19,5.12c19.31,0,30.31-5.07,31.79-5.78l0,.08L128.52,163" style="fill:none;stroke:#545a92;stroke-linecap:round;stroke-linejoin:round;stroke-width:14.1146652966427px;mix-blend-mode:multiply"/><path d="M88.93,37.14,123.19,27l-.29,17.26A55,55,0,0,1,147,71.74l15.94,4v30.16l-16.77,7A55.14,55.14,0,0,1,119.74,140" style="fill:none;stroke:#22accb;stroke-linecap:round;stroke-linejoin:round;stroke-width:14.1146652966427px;mix-blend-mode:multiply"/><path d="M7,81.4s4.09,9.92,20.24,9.92h.06c0-29.8,24.78-54.17,55.07-54.17h6.57" style="fill:none;stroke:#800f3e;stroke-linecap:round;stroke-linejoin:round;stroke-width:14.1146652966427px;mix-blend-mode:multiply"/><path d="M79.8,60.93a71.66,71.66,0,0,1,18.25,0" style="fill:none;stroke:#f8b73d;stroke-linecap:round;stroke-linejoin:round;stroke-width:14px;mix-blend-mode:multiply"/></g></g></svg>