<?xml version="1.0" encoding="UTF-8"?>
<svg width="490px" height="76px" viewBox="0 0 490 76" version="1.1" xmlns="http://www.w3.org/2000/svg" xmlns:xlink="http://www.w3.org/1999/xlink">
    <!-- Generator: Sketch 43.2 (39069) - http://www.bohemiancoding.com/sketch -->
    <title>MoneYou_Logo_Wordmark</title>
    <desc>Created with Sketch.</desc>
    <defs></defs>
    <g id="Page-1" stroke="none" stroke-width="1" fill="none" fill-rule="evenodd">
        <g id="MoneYou_Logo_Wordmark" fill="#d30d47">
            <path d="M395.092,43.068 C387.594,43.068 381.515,36.99 381.515,29.492 C381.515,21.993 387.594,15.915 395.092,15.915 C402.591,15.915 408.669,21.993 408.669,29.492 C408.669,36.99 402.591,43.068 395.092,43.068 Z M395.092,0.487 C379.073,0.487 366.088,13.473 366.088,29.492 C366.088,45.511 379.073,58.496 395.092,58.496 C411.112,58.496 424.097,45.511 424.097,29.492 C424.097,13.473 411.112,0.487 395.092,0.487 L395.092,0.487 Z" id="Fill-1"></path>
            <path d="M358.991,1.871 L347.943,1.871 C346.287,1.871 345.322,2.006 344.627,3.388 L330.818,34.602 L330.681,34.602 L316.731,3.388 C316.313,2.56 315.623,1.871 314.381,1.871 L301.95,1.871 C299.882,1.871 298.775,3.664 299.605,5.46 L322.114,53.249 L313.933,72.064 C312.967,73.999 314.21,75.795 316.282,75.795 L328.16,75.795 C329.262,75.795 330.092,74.965 330.51,74.137 L361.34,5.46 C362.306,3.664 361.203,1.871 358.991,1.871" id="Fill-2"></path>
            <path d="M257.915,22.585 C258.609,17.338 263.166,13.195 268.691,13.195 C273.938,13.195 278.355,17.477 278.773,22.585 L257.915,22.585 Z M269.103,0.487 C252.667,0.487 240.93,13.884 240.93,29.493 C240.93,45.376 252.667,58.496 269.24,58.496 C277.945,58.496 284.257,55.937 288.765,52.081 C289.924,51.09 290.118,49.366 289.245,48.115 L285.293,42.445 C284.429,41.205 282.787,40.835 281.446,41.53 C278.126,43.251 274.288,44.271 269.146,44.271 C261.131,44.271 257.089,40.302 256.671,34.64 L292.03,34.64 C293.272,34.64 294.514,33.674 294.655,32.291 C294.791,31.325 294.932,29.529 294.932,28.563 C294.932,13.646 285.742,0.487 269.103,0.487 L269.103,0.487 Z" id="Fill-3"></path>
            <path d="M68.867,0.487 C58.926,0.487 51.742,6.564 49.393,9.052 C44.835,3.526 39.311,0.487 31.438,0.487 C23.299,0.487 17.537,4.295 14.474,7.089 C13.534,5.624 12.396,3.468 12.396,3.468 C11.894,2.671 11.169,1.871 9.926,1.871 L3.541,1.871 C2.157,1.871 0.914,2.975 0.914,4.494 L0.914,54.491 C0.914,55.873 2.157,57.115 3.541,57.115 L14.725,57.115 C16.109,57.115 17.351,55.873 17.351,54.491 L17.351,24.105 C18.734,20.377 22.049,15.404 28.952,15.404 C35.996,15.404 39.175,19.962 39.175,27.144 L39.175,54.491 C39.175,55.873 40.277,57.115 41.796,57.115 L52.156,57.115 C53.538,57.115 54.781,55.873 54.781,54.491 L54.781,26.454 C54.781,23.966 54.641,21.205 54.641,21.205 C54.641,21.205 58.233,15.404 66.247,15.404 C73.15,15.404 76.605,19.962 76.605,27.144 L76.605,54.491 C76.605,55.873 77.707,57.115 79.227,57.115 L90.415,57.115 C91.935,57.115 93.037,55.873 93.037,54.491 L93.037,28.112 C93.037,13.61 86.546,0.487 68.867,0.487" id="Fill-4"></path>
            <path d="M486.548,1.871 L476.054,1.871 C473.84,1.871 473.015,2.421 473.015,4.494 L473.015,33.221 C472.185,38.194 467.768,43.58 461.962,43.58 C455.613,43.58 451.88,39.021 451.88,31.702 L451.88,4.494 C451.88,2.975 450.638,1.871 449.259,1.871 L437.934,1.871 C436.551,1.871 435.308,2.975 435.308,4.494 L435.308,31.289 C435.308,45.376 441.522,58.496 458.652,58.496 C467.708,58.496 472.734,54.518 475.614,51.895 L475.615,51.943 C476.555,53.408 477.693,55.564 477.693,55.564 C478.196,56.361 478.92,57.162 480.162,57.162 L486.548,57.162 C487.931,57.162 489.174,56.058 489.174,54.538 L489.174,4.494 C489.174,2.975 487.931,1.871 486.548,1.871" id="Fill-5"></path>
            <path d="M205.132,0.487 C196.243,0.487 190.101,4.617 187.1,7.27 L187.062,7.089 C186.122,5.624 184.984,3.468 184.984,3.468 C184.483,2.671 183.758,1.871 182.515,1.871 L176.129,1.871 C174.746,1.871 173.503,2.975 173.503,4.494 L173.503,54.491 C173.503,55.873 174.746,57.115 176.129,57.115 L187.313,57.115 C188.697,57.115 189.94,55.873 189.94,54.491 L189.94,23.807 C191.435,20.116 195.79,15.404 202.783,15.404 C209.414,15.404 213.142,19.962 213.142,27.144 L213.142,54.491 C213.142,55.873 214.249,57.115 215.768,57.115 L227.093,57.115 C228.476,57.115 229.719,55.873 229.719,54.491 L229.719,27.974 C229.719,13.61 222.676,0.487 205.132,0.487" id="Fill-6"></path>
            <path d="M133.263,43.068 C125.764,43.068 119.686,36.99 119.686,29.492 C119.686,21.993 125.764,15.915 133.263,15.915 C140.762,15.915 146.84,21.993 146.84,29.492 C146.84,36.99 140.762,43.068 133.263,43.068 Z M133.263,0.487 C117.243,0.487 104.258,13.473 104.258,29.492 C104.258,45.511 117.243,58.496 133.263,58.496 C149.281,58.496 162.268,45.511 162.268,29.492 C162.268,13.473 149.281,0.487 133.263,0.487 L133.263,0.487 Z" id="Fill-7"></path>
        </g>
    </g>
</svg>
