<?xml version="1.0" encoding="UTF-8"?>
<svg width="46px" height="46px" viewBox="0 0 46 46" version="1.1" xmlns="http://www.w3.org/2000/svg" xmlns:xlink="http://www.w3.org/1999/xlink">
    <!-- Generator: Sketch 43.1 (39012) - http://www.bohemiancoding.com/sketch -->
    <title>Mortgages</title>
    <desc>Created with Sketch.</desc>
    <defs></defs>
    <g id="Icons" stroke="none" stroke-width="1" fill="none" fill-rule="evenodd">
        <g id="Illustrations" transform="translate(-193.000000, -240.000000)">
            <g id="1_Product-icons" transform="translate(147.000000, 171.000000)">
                <g id="Mortgages" transform="translate(46.000000, 69.000000)">
                    <path d="M46,23 C46,35.7025714 35.7025714,46 23,46 C10.2974286,46 0,35.7025714 0,23 C0,10.2974286 10.2974286,0 23,0 C35.7025714,0 46,10.2974286 46,23" id="Fill-1-Copy-3" fill="#F3F6F6"></path>
                    <g id="ProductIcon/48px/Mortgages" transform="translate(13.000000, 11.000000)">
                        <g id="Page-1">
                            <path d="M1.95348837,23.0306999 L1.95348837,10.5306999 C1.95348837,9.97841512 1.5161851,9.53069987 0.976744186,9.53069987 C0.437303268,9.53069987 0,9.97841512 0,10.5306999 L0,23.0306999 C0,23.5829846 0.437303268,24.0306999 0.976744186,24.0306999 C1.5161851,24.0306999 1.95348837,23.5829846 1.95348837,23.0306999 Z" id="Stroke-1" fill="#D41D52" fill-rule="nonzero" style="mix-blend-mode: multiply;"></path>
                            <path d="M21,23.0306999 L21,10.5306999 C21,9.97841512 20.5626967,9.53069987 20.0232558,9.53069987 C19.4838149,9.53069987 19.0465116,9.97841512 19.0465116,10.5306999 L19.0465116,23.0306999 C19.0465116,23.5829846 19.4838149,24.0306999 20.0232558,24.0306999 C20.5626967,24.0306999 21,23.5829846 21,23.0306999 Z" id="Stroke-3" fill="#81143F" fill-rule="nonzero" style="mix-blend-mode: multiply;"></path>
                            <path d="M1.65014956,11.2243439 L11.3990021,1.7243439 C11.7897429,1.34357734 11.805007,0.710605251 11.4330954,0.310561161 C11.0611839,-0.0894829295 10.4429321,-0.105110458 10.0521914,0.275656099 L0.303338808,9.7756561 C-0.0874019311,10.1564227 -0.102666029,10.7893947 0.269245492,11.1894388 C0.641157013,11.5894829 1.25940882,11.6051105 1.65014956,11.2243439 Z" id="Stroke-5" fill="#555B93" fill-rule="nonzero" style="mix-blend-mode: multiply;"></path>
                            <path d="M20.7139183,9.79289322 L11.4348485,0.292893219 C11.0534062,-0.0976310729 10.4349659,-0.0976310729 10.0535236,0.292893219 C9.67208128,0.683417511 9.67208128,1.31658249 10.0535236,1.70710678 L19.3325934,11.2071068 C19.7140357,11.5976311 20.3324759,11.5976311 20.7139183,11.2071068 C21.0953606,10.8165825 21.0953606,10.1834175 20.7139183,9.79289322 Z" id="Stroke-7" fill="#1FACCB" fill-rule="nonzero" style="mix-blend-mode: multiply;"></path>
                            <path d="M16.1162791,22 L10.744186,22 C10.2047451,22 9.76744186,22.4477153 9.76744186,23 C9.76744186,23.5522847 10.2047451,24 10.744186,24 L16.1162791,24 C16.65572,24 17.0930233,23.5522847 17.0930233,23 C17.0930233,22.4477153 16.65572,22 16.1162791,22 Z" id="Stroke-9" fill="#F9B73C" fill-rule="nonzero" style="mix-blend-mode: multiply;"></path>
                        </g>
                    </g>
                </g>
            </g>
        </g>
    </g>
</svg>