<?xml version="1.0" encoding="UTF-8"?>
<svg width="47px" height="46px" viewBox="0 0 47 46" version="1.1" xmlns="http://www.w3.org/2000/svg" xmlns:xlink="http://www.w3.org/1999/xlink">
    <!-- Generator: Sketch 43.1 (39012) - http://www.bohemiancoding.com/sketch -->
    <title>Payment</title>
    <desc>Created with Sketch.</desc>
    <defs></defs>
    <g id="Icons" stroke="none" stroke-width="1" fill="none" fill-rule="evenodd">
        <g id="Illustrations" transform="translate(-913.000000, -240.000000)">
            <g id="1_Product-icons" transform="translate(147.000000, 171.000000)">
                <g id="Payment" transform="translate(766.496585, 69.000000)">
                    <path d="M46,23 C46,35.7025714 35.7025714,46 23,46 C10.2974286,46 0,35.7025714 0,23 C0,10.2974286 10.2974286,0 23,0 C35.7025714,0 46,10.2974286 46,23" id="Fill-1-Copy-8" fill="#F3F6F6"></path>
                    <g id="ProductIcon/48px/Payment" transform="translate(11.000000, 13.000000)">
                        <g>
                            <path d="M0.923076923,21.0950226 C0.413275616,21.0950226 0,20.681747 0,20.1719457 L0,8.76923077 C0,8.25942946 0.413275616,7.84615385 0.923076923,7.84615385 L17.5384615,7.84615385 C18.0482628,7.84615385 18.4615385,8.25942946 18.4615385,8.76923077 L18.4615385,20.1719457 C18.4615385,20.681747 18.0482628,21.0950226 17.5384615,21.0950226 L0.923076923,21.0950226 Z M16.6153846,19.2488688 L16.6153846,9.69230769 L1.84615385,9.69230769 L1.84615385,19.2488688 L16.6153846,19.2488688 Z" id="Stroke-1" fill="#D41B51" fill-rule="nonzero" style="mix-blend-mode: multiply;"></path>
                            <path d="M7.82244383,5.40059128 C7.70764008,5.89729791 7.21191298,6.20689136 6.71520635,6.09208761 C6.21849972,5.97728386 5.90890627,5.48155676 6.02371002,4.98485013 L6.75444664,1.82326585 C6.96513103,0.911434697 7.84286892,0.291399593 8.75321899,0.501948994 L22.3911383,3.65393519 C23.301745,3.86416309 23.8181968,4.80638352 23.6075518,5.71838423 L21.9927645,12.7054793 C21.8779701,13.202188 21.3822489,13.5117909 20.8855401,13.3969965 C20.3888313,13.2822022 20.0792285,12.7864809 20.1940228,12.2897721 L21.7843501,5.40851433 L8.52870998,2.34488023 L7.82244383,5.40059128 Z" id="Stroke-3" fill="#22ACCB" fill-rule="nonzero" style="mix-blend-mode: multiply;"></path>
                            <path d="M4.61538462,17.0769231 L7.91337557,17.0769231 C8.42317687,17.0769231 8.83645249,16.6636475 8.83645249,16.1538462 C8.83645249,15.6440448 8.42317687,15.2307692 7.91337557,15.2307692 L4.61538462,15.2307692 C4.10558331,15.2307692 3.69230769,15.6440448 3.69230769,16.1538462 C3.69230769,16.6636475 4.10558331,17.0769231 4.61538462,17.0769231 Z" id="Stroke-5" fill="#F9B73D" fill-rule="nonzero" style="mix-blend-mode: multiply;"></path>
                            <path d="M0.923076923,13.3846154 L17.5384615,13.3846154 C18.0482628,13.3846154 18.4615385,12.9713398 18.4615385,12.4615385 C18.4615385,11.9517372 18.0482628,11.5384615 17.5384615,11.5384615 L0.923076923,11.5384615 C0.413275616,11.5384615 0,11.9517372 0,12.4615385 C0,12.9713398 0.413275616,13.3846154 0.923076923,13.3846154 Z" id="Stroke-7" fill="#545A92" fill-rule="nonzero" style="mix-blend-mode: multiply;"></path>
                        </g>
                    </g>
                </g>
            </g>
        </g>
    </g>
</svg>