<?xml version="1.0" encoding="UTF-8"?>
<svg width="46px" height="46px" viewBox="0 0 46 46" version="1.1" xmlns="http://www.w3.org/2000/svg" xmlns:xlink="http://www.w3.org/1999/xlink">
    <!-- Generator: Sketch 43.1 (39012) - http://www.bohemiancoding.com/sketch -->
    <title>Savings</title>
    <desc>Created with Sketch.</desc>
    <defs></defs>
    <g id="Icons" stroke="none" stroke-width="1" fill="none" fill-rule="evenodd">
        <g id="Illustrations" transform="translate(-625.000000, -240.000000)">
            <g id="1_Product-icons" transform="translate(147.000000, 171.000000)">
                <g id="Savings" transform="translate(478.000000, 69.000000)">
                    <path d="M46,23 C46,35.7025714 35.7025714,46 23,46 C10.2974286,46 0,35.7025714 0,23 C0,10.2974286 10.2974286,0 23,0 C35.7025714,0 46,10.2974286 46,23" id="Fill-1-Copy-6" fill="#F3F6F6"></path>
                    <g id="ProductIcon/48px/Savings" transform="translate(11.000000, 13.000000)">
                        <g>
                            <path d="M7.21141238,17.8204625 C7.46532563,17.9694426 7.72796474,18.1062532 7.99866141,18.2299878 C8.38667163,18.407346 8.84288123,18.2907199 9.10378382,17.9474727 L8.37712651,17.3649798 L7.51763026,17.0204947 L6.28322359,20.2452756 C6.09729367,20.7310015 6.33137726,21.2789914 6.80606393,21.4692453 C7.2807506,21.6594992 7.81628616,21.4199718 8.00221609,20.9342459 L9.23662276,17.709465 C9.457712,17.1318884 9.12473308,16.6337 8.67615428,16.4701126 C8.33641477,16.3462167 7.93036634,16.4142503 7.64849369,16.785086 L8.375151,17.3675788 L8.7516406,16.5051699 C8.72638862,16.4936273 8.70122623,16.4819411 8.67615428,16.4701126 C6.28658754,15.342755 4.71859049,12.9221608 4.71859049,10.2393893 C4.71859049,9.71773219 4.30531488,9.29484551 3.79551357,9.29484551 C3.28571226,9.29484551 2.87243665,9.71773219 2.87243665,10.2393893 C2.87243665,13.4031082 4.56964914,16.2704441 7.21141238,17.8204625 Z" id="Stroke-1" fill="#D41B51" fill-rule="nonzero" style="mix-blend-mode: multiply;"></path>
                            <path d="M17.2165649,20.9268022 C17.3985395,21.414094 17.9321093,21.6581717 18.4083262,21.4719651 C18.8845432,21.2857584 19.1230737,20.7397801 18.941099,20.2524883 L17.7066924,16.946994 L17.687787,16.8999483 C17.4807194,16.4055544 16.9125636,16.1876471 16.438934,16.4209701 C16.2041606,16.5366259 15.8399671,16.6758403 15.3131547,16.8125812 C14.467445,17.032096 13.4799062,17.1624793 12.3534032,17.1624793 C10.9946068,17.1624793 9.29533359,16.7538007 8.7517659,16.5052496 C8.28632292,16.2924217 7.74039691,16.5059815 7.53240604,16.9822488 C7.32441517,17.458516 7.53312135,18.017138 7.99856433,18.2299658 C8.7684926,18.5820223 10.7208451,19.0515669 12.3534032,19.0515669 C13.6356074,19.0515669 14.7753817,18.9010842 15.7670805,18.6436761 C15.962125,18.5930498 16.1416893,18.5411841 16.3067197,18.4888498 L17.2165649,20.9268022 Z" id="Stroke-3" fill="#545A92" fill-rule="nonzero" style="mix-blend-mode: multiply;"></path>
                            <path d="M16.3622546,3.42909731 C16.356583,3.77568104 16.5368923,4.0975993 16.8320092,4.26778157 C18.1953394,5.05396038 19.260333,6.2929246 19.8307223,7.76191397 C19.9401893,8.04383701 20.1753271,8.25480289 20.4627876,8.32900379 L22.0141781,8.72945729 L22.0141781,11.7172724 L20.2178004,12.4796798 C19.9993921,12.5723753 19.8240743,12.7472984 19.7280023,12.9683753 C19.0760462,14.4686295 17.9032612,15.6996231 16.4390203,16.4209762 C15.9796828,16.6472672 15.7865921,17.2117386 16.0077401,17.6817584 C16.2288881,18.1517781 16.7805306,18.3493593 17.2398681,18.1230683 C18.9825386,17.2645478 20.3998282,15.8367092 21.2540188,14.0850292 L23.2909048,13.2205468 C23.6356205,13.0742447 23.860332,12.7299429 23.860332,12.3480732 L23.860332,7.9935938 C23.860332,7.56092137 23.5730318,7.1835708 23.1630366,7.07774057 L21.3556664,6.6112122 C20.6737164,5.11011344 19.5813912,3.82804564 18.2170136,2.91906211 L18.2489297,0.968718006 C18.2593671,0.330904116 17.6616843,-0.133873464 17.063928,0.0472221767 L12.2302974,1.51161405 C11.7414713,1.65970834 11.462525,2.18525002 11.6072535,2.68544425 C11.751982,3.18563848 12.2655796,3.47107187 12.7544057,3.32297758 L16.3819757,2.22397264 L16.3622546,3.42909731 Z" id="Stroke-5" fill="#22ACCB" fill-rule="nonzero" style="mix-blend-mode: multiply;"></path>
                            <path d="M2.08788432,8.79139473 C1.97126325,8.69411742 1.8827572,8.593603 1.8189376,8.49811001 C1.7896398,8.45427184 1.77906411,8.4338055 1.78455577,8.44743076 C1.59018374,7.96517768 1.05055578,7.7354684 0.579263001,7.93436071 C0.10797022,8.13325303 -0.116518399,8.68543047 0.0778536364,9.16768355 C0.204572637,9.48208386 0.469768907,9.87889589 0.921409951,10.255624 C1.62388414,10.8415799 2.5794071,11.1840054 3.78735757,11.1840054 C4.3053431,11.1840054 4.71861872,10.7611187 4.71861872,10.2394615 C4.71861872,6.46239099 7.79849788,3.36188296 11.5656153,3.36188296 L12.492408,3.36188296 C13.0022093,3.36188296 13.415485,2.93899629 13.415485,2.41733913 C13.415485,1.89568198 13.0022093,1.47279531 12.492408,1.47279531 L11.5656153,1.47279531 C7.13332325,1.47279531 3.44640987,4.85979496 2.93342295,9.20116969 C2.58251228,9.11487968 2.30545617,8.97287829 2.08788432,8.79139473 Z" id="Stroke-7" fill="#800F3E" fill-rule="nonzero" style="mix-blend-mode: multiply;"></path>
                            <path d="M11.4239248,6.82327224 C11.4649401,6.8129457 11.5620217,6.79300573 11.7033431,6.77179401 C11.9477818,6.73510486 12.2144759,6.71296082 12.4909829,6.71296082 C12.7674898,6.71296082 13.0341839,6.73510486 13.2786226,6.77179401 C13.419944,6.79300573 13.5170256,6.8129457 13.5580409,6.82327224 C14.0530773,6.94790915 14.5531255,6.63830828 14.6749298,6.13175935 C14.796734,5.62521041 14.4941695,5.11353319 13.9991331,4.98889628 C13.9034506,4.964806 13.7491849,4.93312075 13.5465572,4.90270724 C13.2177475,4.85335436 12.8626875,4.82387317 12.4909829,4.82387317 C12.1192782,4.82387317 11.7642182,4.85335436 11.4354085,4.90270724 C11.2327808,4.93312075 11.0785151,4.964806 10.9828326,4.98889628 C10.4877962,5.11353319 10.1852317,5.62521041 10.3070359,6.13175935 C10.4288402,6.63830828 10.9288884,6.94790915 11.4239248,6.82327224 Z" id="Stroke-9" fill="#F9B73D" fill-rule="nonzero" style="mix-blend-mode: multiply;"></path>
                        </g>
                    </g>
                </g>
            </g>
        </g>
    </g>
</svg>