<?xml version="1.0" encoding="UTF-8"?>
<svg width="46px" height="46px" viewBox="0 0 46 46" version="1.1" xmlns="http://www.w3.org/2000/svg" xmlns:xlink="http://www.w3.org/1999/xlink">
    <!-- Generator: Sketch 43.1 (39012) - http://www.bohemiancoding.com/sketch -->
    <title>Target saving</title>
    <desc>Created with Sketch.</desc>
    <defs></defs>
    <g id="Icons" stroke="none" stroke-width="1" fill="none" fill-rule="evenodd">
        <g id="Illustrations" transform="translate(-769.000000, -240.000000)">
            <g id="1_Product-icons" transform="translate(147.000000, 171.000000)">
                <g id="Target-saving" transform="translate(622.000000, 69.000000)">
                    <path d="M46,23 C46,35.7025714 35.7025714,46 23,46 C10.2974286,46 0,35.7025714 0,23 C0,10.2974286 10.2974286,0 23,0 C35.7025714,0 46,10.2974286 46,23" id="Fill-1-Copy-7" fill="#F3F6F6"></path>
                    <g id="ProductIcon/48px/TargetSaving" transform="translate(11.000000, 11.000000)">
                        <g>
                            <path d="M20.6108253,0.923093456 C20.6108253,0.413292148 20.1975496,1.6532721e-05 19.6877483,1.6532721e-05 C19.177947,1.6532721e-05 18.7646714,0.413292148 18.7646714,0.923093456 L18.7646714,4.31230126 C18.7646714,4.82210257 19.177947,5.23537819 19.6877483,5.23537819 L23.0769561,5.23537819 C23.5867574,5.23537819 24.0000331,4.82210257 24.0000331,4.31230126 C24.0000331,3.80249996 23.5867574,3.38922434 23.0769561,3.38922434 L20.6108253,3.38922434 L20.6108253,0.923093456 Z" id="Stroke-1" fill="#F9B73D" fill-rule="nonzero" style="mix-blend-mode: multiply;"></path>
                            <path d="M4.77176811,19.2282727 C0.870958003,15.3276139 0.870958003,9.00322489 4.77178077,5.10240213 C7.56962488,2.30440997 11.7100581,1.44721455 15.3508168,2.81335144 C15.8281219,2.99245259 16.3602443,2.75071054 16.5393455,2.27340545 C16.7184466,1.79610036 16.4767046,1.26397796 15.9993995,1.08487681 C11.6867313,-0.533383449 6.78087363,0.482278071 3.4663356,3.79699149 C-1.15544204,8.41876914 -1.15544204,15.9120977 3.46636553,20.5337259 C3.82685648,20.8942029 4.41131646,20.8941916 4.77179343,20.5337006 C5.1322704,20.1732096 5.13225906,19.5887497 4.77176811,19.2282727 Z" id="Stroke-3" fill="#545A92" fill-rule="nonzero" style="mix-blend-mode: multiply;"></path>
                            <path d="M21.1361632,8.51722095 C22.5722261,12.1853696 21.7314855,16.39453 18.8976475,19.228368 C14.9969858,23.1290297 8.67257724,23.1290297 4.77175158,19.2283554 C4.41126062,18.8678784 3.82680064,18.8678897 3.46632367,19.2283807 C3.1058467,19.5888716 3.10585804,20.1733316 3.466349,20.5338086 C8.08814101,25.1554213 15.58145,25.1554213 20.2030754,20.5337959 C23.5602995,17.1765718 24.5564252,12.1894774 22.8552692,7.84419903 C22.6694193,7.36948101 22.1339233,7.13530711 21.6592052,7.32115698 C21.1844872,7.50700685 20.9503133,8.04250293 21.1361632,8.51722095 Z" id="Stroke-5" fill="#D41B51" fill-rule="nonzero" style="mix-blend-mode: multiply;"></path>
                            <path d="M12.218502,12.5903434 L20.3195353,4.98529175 C20.6912177,4.63636543 20.7096651,4.05219666 20.3607388,3.68051427 C20.0118125,3.30883189 19.4276437,3.29038445 19.0559613,3.63931077 L10.954928,11.2443624 C10.5832457,11.5932888 10.5647982,12.1774575 10.9137245,12.5491399 C11.2626509,12.9208223 11.8468196,12.9392697 12.218502,12.5903434 Z" id="Stroke-7" fill="#F9B73D" fill-rule="nonzero" style="mix-blend-mode: multiply;"></path>
                            <path d="M11.2870831,5.78830994 C8.30223509,5.97710998 5.84882938,8.27585034 5.49829842,11.2741762 C5.25805424,13.3296827 6.0521328,15.3337431 7.58116319,16.6725926 C7.96470992,17.0084338 8.54788902,16.9697608 8.88373018,16.5862141 C9.21957134,16.2026674 9.18089834,15.6194882 8.79735162,15.2836471 C7.72052533,14.3407565 7.16304401,12.9338098 7.33196704,11.4885204 C7.57832819,9.38122856 9.30486543,7.7635341 11.4036246,7.63078168 C11.9124091,7.59859962 12.2987718,7.16005957 12.2665897,6.65127505 C12.2344077,6.14249053 11.7958676,5.75612789 11.2870831,5.78830994 Z" id="Stroke-9" fill="#22ACCB" fill-rule="nonzero" style="mix-blend-mode: multiply;"></path>
                            <path d="M7.58125715,16.6725943 C8.52365455,17.4975907 9.69485579,18.0233392 10.9658672,18.1712676 C14.3836186,18.5688475 17.4778974,16.126713 17.8767157,12.7152052 C17.9359103,12.2088522 17.5734167,11.7503852 17.0670637,11.6911906 C16.5607107,11.6319961 16.1022438,11.9944896 16.0430492,12.5008426 C15.762684,14.8990978 13.5855241,16.6174037 11.1792409,16.3374858 C10.2827151,16.2331424 9.46038469,15.8640009 8.79729073,15.2835132 C8.41370657,14.9477148 7.83053178,14.9864528 7.49473338,15.3700369 C7.15893498,15.7536211 7.19767299,16.3367959 7.58125715,16.6725943 Z" id="Stroke-11" fill="#800F3E" fill-rule="nonzero" style="mix-blend-mode: multiply;"></path>
                        </g>
                    </g>
                </g>
            </g>
        </g>
    </g>
</svg>