<?xml version="1.0" encoding="UTF-8" standalone="no"?>
<svg width="200px" height="196px" viewBox="0 0 200 196" version="1.1" xmlns="http://www.w3.org/2000/svg" xmlns:xlink="http://www.w3.org/1999/xlink">
    <!-- Generator: Sketch 43.2 (39069) - http://www.bohemiancoding.com/sketch -->
    <title>Img / Illustration Large / Time-out</title>
    <desc>Created with Sketch.</desc>
    <defs></defs>
    <g id="iDeal" stroke="none" stroke-width="1" fill="none" fill-rule="evenodd">
        <g id="03.12---Scan-QR-flow---Something-went-wrong" transform="translate(-88.000000, -64.000000)">
            <g id="Img-/-Feature-illustration-/-Generic-Error" transform="translate(88.000000, 60.000000)">
                <g id="img_illustration_large_generic_error" transform="translate(-2.000000, 4.000000)">
                    <circle id="Background" fill="#F3F6F6" cx="103" cy="97" r="90"></circle>
                    <path d="M79.5483631,113.402802 C79.5483631,113.402802 58.4652423,119.088435 51.6625213,137.455782 C44.8598002,155.823129 53.7006803,166.197279 50.6394558,173 C47.5782313,179.802721 42.8163265,177.081633 39.414966,182.863946 C36.0136054,188.646259 42.1360544,192.557823 42.1360544,192.557823 L172.070685,192.557823 C172.070685,192.557823 188.054422,186.095238 188.054422,167.047619 C188.054422,157.183673 182.540125,149.749074 179.97537,146.901224 C164.356534,129.5584 119.687075,104.802721 119.687075,104.802721 L79.5483631,113.402802 Z" id="Path-17" fill="#FFFFFF"></path>
                    <g id="ICN" fill-rule="nonzero">
                        <path d="M79.0276127,111.471787 L119.268067,102.847106 C119.740616,102.745858 120.233843,102.819139 120.656544,103.053399 C120.788115,103.126315 121.039851,103.266783 121.403752,103.471314 C122.008248,103.811073 122.708893,104.207909 123.49769,104.658336 C125.749345,105.944101 128.257488,107.40231 130.958196,109.005115 C138.67587,113.585368 146.394292,118.4086 153.60389,123.253691 C158.361858,126.451205 162.740786,129.555084 166.661401,132.53169 C172.968085,137.319848 177.971558,141.687627 181.46152,145.562807 C186.370322,151.013437 190.054422,158.4885 190.054422,167.047619 C190.054422,175.938798 186.830495,183.005173 181.476884,188.359674 C179.607257,190.229612 177.60619,191.754083 175.600832,192.963188 C174.381363,193.698451 173.413267,194.172278 172.82037,194.412 C172.582162,194.508313 172.327627,194.557823 172.070685,194.557823 L42.1360544,194.557823 C41.7544651,194.557823 41.3808398,194.448659 41.0592759,194.243216 C40.4427825,193.849345 39.5981221,193.166544 38.7534201,192.197381 C36.2122331,189.281768 35.4446102,185.668934 37.6910976,181.849905 C39.2158114,179.257892 40.8162553,178.056687 43.6737366,176.7837 C46.7444525,175.424894 47.7043735,174.648691 48.8156128,172.179271 C49.6508712,170.323141 49.5349653,169.077563 48.2000951,162.206293 C46.3549291,152.708266 46.4224476,145.845509 49.7870237,136.761154 C52.4039228,129.695526 57.1452218,123.930043 63.3742945,119.33805 C66.7874606,116.821907 70.4342693,114.815494 74.0817465,113.263442 C75.3604412,112.71934 76.5503748,112.270064 77.6225967,111.9093 C78.277126,111.689074 78.7551317,111.545269 79.0276127,111.471787 Z M78.8981855,115.700457 C77.9213611,116.029123 76.8280716,116.44191 75.6479107,116.944085 C72.2700863,118.381396 68.8915932,120.240186 65.747811,122.557742 C60.1064133,126.716509 55.8605777,131.879502 53.5380188,138.150411 C50.4696135,146.435105 50.4089472,152.601387 52.1266862,161.443481 C53.6727796,169.402026 53.8062526,170.836388 52.4632988,173.820729 C50.8746804,177.350992 49.1799122,178.721401 45.6242441,180.294433 C43.1357108,181.402361 42.1677185,182.128883 41.1388344,183.877986 C39.8746547,186.027091 40.2592508,187.837201 41.7688335,189.56921 C42.1286312,189.982021 42.488446,190.316696 42.7849714,190.557823 L171.654165,190.557823 C172.094314,190.353697 172.740786,190.016798 173.535455,189.537663 C175.276285,188.488052 177.021406,187.158568 178.648222,185.531482 C183.284447,180.894487 186.054422,174.823107 186.054422,167.047619 C186.054422,159.632792 182.796398,153.022238 178.489221,148.239641 C175.195528,144.582394 170.366421,140.366827 164.242644,135.717537 C160.387936,132.790967 156.070574,129.730727 151.372769,126.573646 C144.231819,121.774689 136.574652,116.989734 128.916738,112.444948 C126.23599,110.853989 123.747067,109.406954 121.514176,108.131904 C120.733381,107.686046 120.040613,107.293672 119.443892,106.958283 C119.418379,106.943943 80.0223501,115.346638 80.0223501,115.346638 C79.8131393,115.404832 79.4305961,115.52132 78.8981855,115.700457 Z" id="Path-17" fill="#FABB2E"></path>
                        <path d="M73.8837896,125.930906 C68.1064955,130.911188 63.8659745,136.928506 61.7773495,144.060355 C60.1280271,149.692155 59.7472547,155.011996 60.3824798,160.312761 C60.5139072,161.409483 61.5095196,162.19201 62.6062423,162.060582 C63.7029649,161.929155 64.4854913,160.933543 64.3540639,159.83682 C63.7814456,155.05849 64.1233391,150.281833 65.616117,145.184572 C67.4696391,138.855509 71.2656579,133.468942 76.4955048,128.960583 C77.332127,128.239378 77.425691,126.976509 76.7044857,126.139887 C75.9832805,125.303265 74.7204118,125.209701 73.8837896,125.930906 Z" id="Path-17" fill="#FABB2E"></path>
                        <path d="M74.8769238,116.235936 C73.503645,115.807915 73.0177123,114.11358 73.9553945,113.022778 L168.734722,2.76634513 C172.816029,-1.98142444 177.524634,-0.302588265 177.724246,5.94578722 L182.227615,146.913075 C182.271535,148.287872 180.946707,149.295635 179.633514,148.88634 L74.8769238,116.235936 Z" id="Path-15" fill="#FFFFFF"></path>
                        <path d="M74.8769238,116.235936 C73.503645,115.807915 73.0177123,114.11358 73.9553945,113.022778 L168.734722,2.76634513 C172.816029,-1.98142444 177.524634,-0.302588265 177.724246,5.94578722 L182.227615,146.913075 C182.271535,148.287872 180.946707,149.295635 179.633514,148.88634 L74.8769238,116.235936 Z M178.139894,144.231026 L173.726285,6.07350687 C173.64287,3.46238271 173.465526,3.39915139 171.768023,5.3738505 L78.9724157,113.322629 L178.139894,144.231026 Z" id="Path-15" fill="#FABB2E"></path>
                        <path d="M21.3941153,185.786417 C19.884589,182.131037 18.3404896,179.585923 17.2231891,178.933952 C14.2628516,177.206526 10.9166402,178.708548 7.6640897,183.735216 C5.90774124,186.449573 5.66597373,188.986714 6.30124234,191.192932 L23.3574372,191.192932 C22.7629558,189.34529 22.1018779,187.500293 21.3941153,185.786417 Z M26.0529766,195.192932 L4.93986991,195.192932 C4.21935686,195.192932 3.55453588,194.80538 3.19951279,194.178405 C3.01772126,193.857359 2.78569247,193.342685 2.56523315,192.654319 C1.49786246,189.321544 1.78181222,185.462934 4.30580907,181.562211 C8.58623829,174.947003 14.0919867,172.475625 19.2391629,175.479122 C21.393992,176.736515 23.2432931,179.784689 25.0912696,184.259639 C25.8521378,186.102113 26.5547729,188.066009 27.1847325,190.028581 C27.4049358,190.714601 27.6005544,191.352134 27.769517,191.925455 C27.8718241,192.272601 27.9431561,192.523596 27.9813874,192.662619 C28.3315269,193.935853 27.373478,195.192932 26.0529766,195.192932 Z" id="Path-18" fill="#FABB2E"></path>
                        <path d="M197.460643,191.192932 C197.839238,190.315433 197.782785,189.379418 197.000992,188.262571 C195.092296,185.535862 194.351971,185.464422 192.580501,188.202149 C191.53561,189.81698 191.517132,190.642254 191.922777,191.192932 L197.460643,191.192932 Z M198.561701,195.192932 L191.189891,195.192932 C190.85871,195.192932 190.532711,195.11069 190.241163,194.953589 C189.850341,194.742995 189.376847,194.385151 188.918685,193.840139 C187.295721,191.909523 187.197865,189.157693 189.22222,186.029144 C192.678272,180.687973 196.864146,181.091903 200.27792,185.968722 C202.059973,188.514512 202.035136,191.10063 200.891518,193.284303 C200.594224,193.851969 200.28409,194.274385 200.034425,194.546107 C199.655673,194.958321 199.121499,195.192932 198.561701,195.192932 Z" id="Path-18-Copy" fill="#FABB2E"></path>
                        <path d="M56.5096648,183.819551 C57.912625,182.740781 59.1210607,181.577815 60.062585,180.322449 C60.7253267,179.438793 60.5462406,178.185191 59.662585,177.522449 C58.7789294,176.859707 57.5253267,177.038793 56.862585,177.922449 C56.1623192,178.856137 55.2074671,179.775061 54.0714316,180.648586 C53.1957938,181.321886 53.0317662,182.577548 53.7050658,183.453185 C54.3783653,184.328823 55.6340271,184.492851 56.5096648,183.819551 Z" id="Path-19" fill="#FABB2E"></path>
                        <path d="M102.132994,108.173704 L164.606421,38.0272864 C165.341052,37.2024281 165.267908,35.9382123 164.44305,35.2035814 C163.618191,34.4689505 162.353975,34.5420943 161.619345,35.3669526 L99.1459177,105.513371 C98.4112868,106.338229 98.4844306,107.602445 99.3092889,108.337076 C100.134147,109.071706 101.398363,108.998563 102.132994,108.173704 Z" id="Path-20" fill="#FABB2E"></path>
                        <path d="M117.098072,112.256356 L165.028025,58.5135306 C165.763219,57.6891738 165.690938,56.4249084 164.866581,55.6897148 C164.042224,54.9545212 162.777959,55.0268022 162.042765,55.851159 L114.112812,109.593984 C113.377619,110.418341 113.4499,111.682606 114.274256,112.4178 C115.098613,113.152994 116.362879,113.080713 117.098072,112.256356 Z" id="Path-20" fill="#FABB2E"></path>
                        <path d="M132.057054,116.345801 L166.345691,78.3023806 C167.0852,77.4818922 167.019553,76.217265 166.199064,75.4777566 C165.378576,74.7382483 164.113949,74.8038955 163.37444,75.6243839 L129.085803,113.667804 C128.346295,114.488293 128.411942,115.75292 129.23243,116.492428 C130.052919,117.231937 131.317546,117.166289 132.057054,116.345801 Z" id="Path-20" fill="#FABB2E"></path>
                        <path d="M147.033935,120.415247 L165.566684,99.5120292 C166.299462,98.6855241 166.223481,97.4214757 165.396976,96.688698 C164.570471,95.9559203 163.306422,96.0319013 162.573645,96.8584064 L144.040895,117.761624 C143.308117,118.588129 143.384099,119.852177 144.210604,120.584955 C145.037109,121.317733 146.301157,121.241752 147.033935,120.415247 Z" id="Path-20" fill="#FABB2E"></path>
                        <path d="M160.639377,124.496879 L166.354021,118.051293 C167.086799,117.224788 167.010817,115.960739 166.184312,115.227962 C165.357807,114.495184 164.093759,114.571165 163.360981,115.39767 L157.646337,121.843257 C156.91356,122.669762 156.989541,123.93381 157.816046,124.666588 C158.642551,125.399366 159.906599,125.323384 160.639377,124.496879 Z" id="Path-20" fill="#FABB2E"></path>
                        <path d="M92.1755421,192.556494 C92.1755421,193.661064 93.0709726,194.556494 94.1755421,194.556494 C98.550468,194.556494 101.866658,185.463267 99.4479022,179.130949 C99.0001292,177.958676 96.9516195,173.45183 96.689094,172.835607 C93.4414671,165.212489 92.3562605,158.298714 94.1017703,148.993304 C95.2193007,143.035687 97.8344351,137.955894 101.501916,133.699872 C103.2548,131.665693 105.133348,129.955762 107.00714,128.562753 C107.657839,128.079012 108.258752,127.670838 108.793293,127.337147 C109.102158,127.144335 109.311907,127.023395 109.405896,126.973121 C110.379887,126.452145 110.747127,125.240235 110.226151,124.266245 C109.705174,123.292254 108.493264,122.925014 107.519274,123.44599 C106.906201,123.773915 105.896041,124.404516 104.620685,125.352639 C102.521467,126.913234 100.427006,128.819698 98.4717472,131.088728 C94.3656086,135.853801 91.4254018,141.565033 90.1703386,148.255845 C88.2654912,158.410693 89.4728507,166.102697 93.0091274,174.403359 C93.314349,175.119802 95.3159725,179.523496 95.7112177,180.55825 C96.5742445,182.81766 96.4823784,185.43231 95.6273005,187.776994 C95.2734408,188.747303 94.8125106,189.584076 94.3493003,190.145311 C94.1843794,190.345133 94.0351712,190.489804 93.9225948,190.572338 C92.9374442,190.696669 92.1755421,191.537606 92.1755421,192.556494 Z" id="Path-21" fill="#FABB2E"></path>
                    </g>
                </g>
            </g>
        </g>
    </g>
</svg>