<?xml version="1.0" encoding="UTF-8" standalone="no"?>
<svg width="100px" height="92px" viewBox="0 0 100 92" version="1.1" xmlns="http://www.w3.org/2000/svg" xmlns:xlink="http://www.w3.org/1999/xlink">
    <!-- Generator: Sketch 43.2 (39069) - http://www.bohemiancoding.com/sketch -->
    <title>img_illustration_large_time-out</title>
    <desc>Created with Sketch.</desc>
    <defs></defs>
    <g id="Symbols" stroke="none" stroke-width="1" fill="none" fill-rule="evenodd">
        <g id="Img-/-Feature-illustration-/-Time-out" transform="translate(0.000000, -4.000000)">
            <g id="img_illustration_large_time-out">
                <rect id="Bound" x="0" y="0" width="100" height="100"></rect>
                <circle id="Background" fill="#F3F6F6" cx="50.5" cy="50.5" r="45"></circle>
                <g id="ICN" transform="translate(0.000000, 4.000000)">
                    <rect id="Rectangle-4-Copy-2" fill="#FFFFFF" x="65" y="6" width="6" height="6"></rect>
                    <rect id="Rectangle-4-Copy-2" fill="#FFFFFF" x="60.5555556" y="1" width="15" height="5" rx="1"></rect>
                    <rect id="Rectangle-4-Copy-3" fill="#FFFFFF" transform="translate(91.936267, 17.936267) rotate(-315.000000) translate(-91.936267, -17.936267) " x="88.6029341" y="14.6029341" width="6.66666667" height="6.66666667" rx="1"></rect>
                    <path d="M73.8611111,72.0416667 C73.8611111,72.0416667 81.7083333,75.4444444 84,78.5 C86.2916667,81.5555556 87.194987,87.3888889 87.194987,88.3611111 C87.194987,89.3333333 88.1666667,90.4444444 89.6944444,90.0972222 C91.2222222,89.75 97.2644314,87.1805556 98.0972222,85.9305556 C98.930013,84.6805556 98.3055556,83.4305556 96.7783203,83.4305556 C95.2510851,83.4305556 91.7083333,84.6805556 91.7083333,84.6805556 C91.7083333,84.6805556 91.4305556,79.4027778 88.8611111,75.5833333 C86.2916667,71.7638889 82.2291667,68.9513889 82.2291667,68.9513889" id="Path-13" fill="#FFFFFF"></path>
                    <path d="M92.4452452,82.4881688 C92.1760801,80.9032767 91.7578898,79.3167705 91.1552468,77.8259369 C90.7435734,76.8075287 90.2580033,75.8682474 89.6908332,75.0251566 C89.0139734,74.0190136 88.2084002,73.0321865 87.3010893,72.0707859 C86.3184166,71.0295308 85.2685725,70.0713461 84.2185106,69.2158149 C83.8505109,68.9159895 83.5081568,68.6499561 83.1998527,68.4203373 C83.0121379,68.2805311 82.875504,68.1825926 82.7983766,68.1291967 C82.3442924,67.8148307 81.7213405,67.9280947 81.4069745,68.3821789 C81.0926085,68.8362631 81.2058725,69.4592151 81.6599567,69.7735811 C81.7185997,69.8141801 81.8365353,69.8987157 82.0052179,70.0243472 C82.2909094,70.2371245 82.6104361,70.4854195 82.9552311,70.766339 C83.9417254,71.5700789 84.9284376,72.4706435 85.8465507,73.4434903 C86.6827029,74.3294901 87.4199635,75.2326343 88.031389,76.14151 C88.5165469,76.8626907 88.9389164,77.6797176 89.3010118,78.5754784 C89.8443403,79.9195783 90.2267918,81.3705008 90.4734787,82.8230374 C90.5599422,83.3321495 90.6230781,83.8041229 90.6664739,84.226014 C90.6920506,84.474668 90.7052349,84.6479827 90.7097155,84.7331144 C90.7448165,85.4000331 91.4112731,85.8457885 92.0410628,85.6235779 C92.1454405,85.58675 92.3385539,85.5206486 92.5984281,85.4351027 C93.0328556,85.2920969 93.4906561,85.1490672 93.9493752,85.0159159 C94.255728,84.9269916 94.5521738,84.8455433 94.8347777,84.773229 C95.694167,84.5533235 96.3807688,84.4305556 96.7783203,84.4305556 C97.4875668,84.4305556 97.6658113,84.7745048 97.2650053,85.3761054 C96.7375498,86.1678041 91.2860591,88.7099903 89.4728233,89.1220894 C88.7271361,89.2915637 88.194987,88.8550651 88.194987,88.3611111 C88.194987,86.0029857 86.7622523,80.5163364 84.8,77.9 C84.558347,77.577796 84.2658145,77.2534202 83.9249181,76.9250577 C82.9173689,75.9545534 81.4919431,74.9508912 79.7477106,73.9262175 C78.5455547,73.2199944 77.2618708,72.5448669 75.9787001,71.9226487 C75.5298952,71.7050201 75.1128804,71.5093864 74.7380629,71.3386178 C74.5116454,71.2354609 74.3484576,71.1630244 74.2589464,71.1242098 C73.752249,70.9044914 73.1633726,71.137134 72.9436542,71.6438314 C72.7239359,72.1505288 72.9565784,72.7394052 73.4632758,72.9591235 C73.5418919,72.9932137 73.6939428,73.0607066 73.9088594,73.1586237 C74.2695989,73.3229783 74.6722047,73.5118523 75.1060681,73.7222357 C76.3448069,74.3229086 77.5830325,74.9741281 78.7346588,75.650667 C80.3550983,76.6026167 81.6641856,77.5243634 82.5374332,78.365504 C82.8053036,78.6235255 83.0270939,78.8694586 83.2,79.1 C84.1279696,80.3372928 84.9079425,82.2381092 85.489313,84.4644644 C85.9081051,86.0682262 86.194987,87.8094582 86.194987,88.3611111 C86.194987,90.1256863 87.9060311,91.5291811 89.9160655,91.0723551 C92.1966811,90.5540334 98.0312117,87.8332247 98.9294392,86.4850057 C100.207337,84.5669105 99.1002154,82.4305556 96.7783203,82.4305556 C96.1686805,82.4305556 95.3501514,82.5769128 94.3389806,82.835657 C94.0345659,82.9135524 93.7177658,83.000593 93.391852,83.0951952 C93.1172672,83.1748983 92.8437745,83.2577173 92.5752198,83.3418863 C92.5386885,83.0696739 92.4955667,82.7844706 92.4452452,82.4881688 Z" id="Path-13" fill="#FABB2E" fill-rule="nonzero"></path>
                    <path d="M66,11 L70,11 L70,7 L66,7 L66,11 Z M72,5 L72,13 L64,13 L64,5 L72,5 Z" id="Rectangle-4-Copy-2" fill="#FABB2E" fill-rule="nonzero"></path>
                    <path d="M61.5464202,71.9102404 C63.729218,72.4052947 66.0007523,72.6666667 68.3333333,72.6666667 C85.2087007,72.6666667 98.8888889,58.9864785 98.8888889,42.1111111 C98.8888889,25.2357438 85.2087007,11.5555556 68.3333333,11.5555556 C51.457966,11.5555556 37.7777778,25.2357438 37.7777778,42.1111111 C37.7777778,54.188509 44.7847815,64.6293334 54.9552682,69.5900638 C54.9545919,69.5953719 54.9539642,69.6007142 54.9533851,69.6060907 C54.7441426,71.5489169 53.6836075,73.7747781 52.4997287,74.8888889 C50.1383464,77.1111111 44.547912,76.3114485 42.7777778,76.4861111 C41.0076435,76.6607737 39.3737541,79.4345877 38.5416667,80.71589 C37.7095793,81.9971922 35.1388889,86.0694444 37.4305556,87.0416667 C39.7222222,88.0138889 43.2899343,81.8153742 43.8194444,81 C44.3489546,80.1846258 47.5694444,82.3762244 53.3333333,80.71589 C59.0972222,79.0555556 61.5277778,72.1805556 61.5277778,72.1805556 L61.5464202,71.9102404 Z" id="Combined-Shape" fill="#FFFFFF"></path>
                    <path d="M61.8132848,74.0146306 C61.2677643,75.1138683 60.5968992,76.2128173 59.7915957,77.242954 C58.1035873,79.4022388 56.053988,80.9728456 53.610136,81.6768168 C50.7538067,82.4996053 48.4497664,82.5198074 45.8818877,82.0683757 C45.6579134,82.0290012 44.9344643,81.8933587 45.0281599,81.9106152 C44.7784477,81.8646242 44.6132956,81.8378312 44.4845387,81.8232922 C44.323368,82.081971 44.0874726,82.4595791 43.9440476,82.6831108 C43.5016179,83.3726487 43.0610273,84.016925 42.6026286,84.6283686 C41.8204088,85.6717469 41.0607971,86.5189478 40.3183432,87.1229543 C39.1963276,88.0357446 38.0947785,88.4097278 37.0400057,87.9622484 C35.3791198,87.2576302 35.1733337,85.6342027 35.8720523,83.6609034 C36.2762272,82.5194452 36.8775913,81.4422629 37.7029961,80.171251 C37.7475587,80.1026306 38.1102517,79.5361076 38.2354238,79.3442633 C38.4812662,78.9674744 38.7032259,78.6417658 38.9313841,78.328208 C40.159479,76.6404372 41.3211767,75.6249805 42.6795827,75.4909439 C43.0971553,75.4497412 43.4351193,75.450197 44.6712018,75.4743843 C46.1027376,75.5023961 46.9138083,75.4966929 47.8237975,75.4274372 C49.7012654,75.2845504 51.0540216,74.8762231 51.8144058,74.1606496 C52.7049506,73.322586 53.5363073,71.6817092 53.8542388,70.1560067 C43.4679152,64.786118 36.7777778,54.0496029 36.7777778,42.1111111 C36.7777778,24.683459 50.9056812,10.5555556 68.3333333,10.5555556 C85.7609854,10.5555556 99.8888889,24.683459 99.8888889,42.1111111 C99.8888889,59.5387632 85.7609854,73.6666667 68.3333333,73.6666667 C66.2726615,73.6666667 64.2371599,73.4690068 62.246661,73.0799598 C62.1337774,73.3441837 61.9896536,73.6592429 61.8132848,74.0146306 Z M61.7676011,70.9350076 C63.904793,71.4197185 66.1026419,71.6666667 68.3333333,71.6666667 C84.6564159,71.6666667 97.8888889,58.4341937 97.8888889,42.1111111 C97.8888889,25.7880285 84.6564159,12.5555556 68.3333333,12.5555556 C52.0102507,12.5555556 38.7777778,25.7880285 38.7777778,42.1111111 C38.7777778,53.5296882 45.3110137,63.7733942 55.3936574,68.6912785 C55.7787577,68.8791141 56.0014002,69.2914129 55.94725,69.7164449 C55.7164869,71.8593957 54.5660356,74.3175279 53.1850517,75.6171282 C52.0123091,76.7207591 50.2683269,77.2471773 47.9755708,77.4216701 C46.9836589,77.4971607 46.1243934,77.5032028 44.6320739,77.4740015 C43.5080997,77.4520079 43.1771396,77.4515616 42.8759729,77.4812783 C42.2755446,77.5405237 41.457928,78.2552142 40.5485712,79.5049432 C40.3428778,79.7876276 40.1391454,80.0865892 39.9104202,80.4371435 C39.7912049,80.6198581 39.4300728,81.183943 39.3803372,81.260529 C38.636078,82.4065878 38.0941396,83.3773249 37.7573543,84.3284633 C37.3665379,85.4321948 37.4329901,85.9564299 37.8211054,86.1210849 C38.028044,86.208877 38.4479859,86.0663039 39.0561982,85.5715066 C39.6499961,85.0884358 40.3096142,84.3527585 41.0023975,83.4286767 C41.4283698,82.8604858 41.8426137,82.2547362 42.2607532,81.6030552 C42.4792627,81.2625025 42.9537523,80.4969705 42.9807739,80.455361 C43.3590543,79.8728601 43.9130339,79.7545743 44.6553049,79.8301586 C44.8559459,79.8505896 45.0702631,79.8847317 45.3904192,79.9436967 C45.3069534,79.9283243 46.0173596,80.0615213 46.2281762,80.0985828 C48.5191817,80.5013403 50.5265677,80.4837393 53.0565307,79.7549632 C55.0488046,79.1810727 56.7674155,77.8641022 58.2159249,76.0111824 C58.931387,75.0959698 59.5329068,74.1106159 60.0217666,73.1255509 C60.1924476,72.7816243 60.3364123,72.4633668 60.4540908,72.1796045 C60.4894456,72.0943524 60.5181187,72.0228372 60.5401814,71.9662618 C60.5909999,71.2293932 61.1692968,70.7993134 61.7676011,70.9350076 Z" id="Combined-Shape" fill="#FABB2E" fill-rule="nonzero"></path>
                    <path d="M68.3333333,68.1111111 C53.9739298,68.1111111 42.3333333,56.4705146 42.3333333,42.1111111 C42.3333333,27.7517076 53.9739298,16.1111111 68.3333333,16.1111111 C82.6927368,16.1111111 94.3333333,27.7517076 94.3333333,42.1111111 C94.3333333,56.4705146 82.6927368,68.1111111 68.3333333,68.1111111 Z M68.3333333,66.1111111 C81.5881673,66.1111111 92.3333333,55.3659451 92.3333333,42.1111111 C92.3333333,28.8562771 81.5881673,18.1111111 68.3333333,18.1111111 C55.0784993,18.1111111 44.3333333,28.8562771 44.3333333,42.1111111 C44.3333333,55.3659451 55.0784993,66.1111111 68.3333333,66.1111111 Z" id="Oval" fill="#FABB2E" fill-rule="nonzero"></path>
                    <path d="M61.5555556,5.00019251 C61.5555556,5.00031607 74.5480716,5 74.5480716,5 C74.5549874,5 74.5555556,1.99980749 74.5555556,1.99980749 C74.5555556,1.99968393 61.5630395,2 61.5630395,2 C61.5561237,2 61.5555556,5.00019251 61.5555556,5.00019251 Z M59.5555556,1.99980749 C59.5555556,0.893220459 60.45431,0 61.5630395,0 L74.5480716,0 C75.6558349,0 76.5555556,0.89045184 76.5555556,1.99980749 L76.5555556,5.00019251 C76.5555556,6.10677954 75.6568011,7 74.5480716,7 L61.5630395,7 C60.4552762,7 59.5555556,6.10954816 59.5555556,5.00019251 L59.5555556,1.99980749 Z" id="Rectangle-4-Copy-2" fill="#FABB2E" fill-rule="nonzero"></path>
                    <path d="M88.6364358,17.9362674 L91.9362674,21.2360991 L95.2360991,17.9362674 L91.9362674,14.6364358 L88.6364358,17.9362674 Z M93.3491144,13.2208556 L96.6516792,16.5234205 C97.4318492,17.3035905 97.4314461,18.5693475 96.6516792,19.3491144 L93.3491144,22.6516792 C92.5689444,23.4318492 91.3031873,23.4314461 90.5234205,22.6516792 L87.2208556,19.3491144 C86.4406856,18.5689444 86.4410888,17.3031873 87.2208556,16.5234205 L90.5234205,13.2208556 C91.3035905,12.4406856 92.5693475,12.4410888 93.3491144,13.2208556 Z" id="Rectangle-4-Copy-3" fill="#FABB2E" fill-rule="nonzero"></path>
                    <g id="Group-3" transform="translate(48.444444, 21.666667)" fill-rule="nonzero" fill="#FABB2E">
                        <path d="M5.08625731,18.8333333 L1.13888889,18.8333333 C0.586604139,18.8333333 0.138888889,19.2810486 0.138888889,19.8333333 C0.138888889,20.3856181 0.586604139,20.8333333 1.13888889,20.8333333 L5.08625731,20.8333333 C5.63854206,20.8333333 6.08625731,20.3856181 6.08625731,19.8333333 C6.08625731,19.2810486 5.63854206,18.8333333 5.08625731,18.8333333 Z" id="Path-6-Copy-21"></path>
                        <path d="M38.6388889,18.8333333 L34.6915205,18.8333333 C34.1392357,18.8333333 33.6915205,19.2810486 33.6915205,19.8333333 C33.6915205,20.3856181 34.1392357,20.8333333 34.6915205,20.8333333 L38.6388889,20.8333333 C39.1911736,20.8333333 39.6388889,20.3856181 39.6388889,19.8333333 C39.6388889,19.2810486 39.1911736,18.8333333 38.6388889,18.8333333 Z" id="Path-6-Copy-22"></path>
                        <path d="M21.0555556,5.43347953 L21.0555556,1.43347953 C21.0555556,0.881194782 20.6078403,0.433479532 20.0555556,0.433479532 C19.5032708,0.433479532 19.0555556,0.881194782 19.0555556,1.43347953 L19.0555556,5.43347953 C19.0555556,5.98576428 19.5032708,6.43347953 20.0555556,6.43347953 C20.6078403,6.43347953 21.0555556,5.98576428 21.0555556,5.43347953 Z" id="Path-6-Copy-24"></path>
                        <path d="M21.0555556,38.7668129 L21.0555556,34.8194444 C21.0555556,34.2671597 20.6078403,33.8194444 20.0555556,33.8194444 C19.5032708,33.8194444 19.0555556,34.2671597 19.0555556,34.8194444 L19.0555556,38.7668129 C19.0555556,39.3190976 19.5032708,39.7668129 20.0555556,39.7668129 C20.6078403,39.7668129 21.0555556,39.3190976 21.0555556,38.7668129 Z" id="Path-6-Copy-24"></path>
                        <path d="M34.0046426,32.3547268 L31.2134317,29.5635158 C30.8229074,29.1729915 30.1897424,29.1729915 29.7992181,29.5635158 C29.4086938,29.9540401 29.4086938,30.5872051 29.7992181,30.9777294 L32.5904291,33.7689404 C32.9809534,34.1594647 33.6141183,34.1594647 34.0046426,33.7689404 C34.3951669,33.3784161 34.3951669,32.7452511 34.0046426,32.3547268 Z" id="Path-6-Copy-22"></path>
                        <path d="M31.0464759,10.4463051 L33.874903,7.61787797 C34.2654273,7.22735367 34.2654273,6.59418869 33.874903,6.2036644 C33.4843787,5.81314011 32.8512137,5.81314011 32.4606895,6.2036644 L29.6322623,9.03209153 C29.241738,9.42261582 29.241738,10.0557808 29.6322623,10.4463051 C30.0227866,10.8368294 30.6559516,10.8368294 31.0464759,10.4463051 Z" id="Path-6-Copy-24"></path>
                        <path d="M7.47624985,34.0165311 L10.2674608,31.2253202 C10.6579851,30.8347959 10.6579851,30.2016309 10.2674608,29.8111066 C9.87693654,29.4205823 9.24377156,29.4205823 8.85324727,29.8111066 L6.06203629,32.6023176 C5.671512,32.9928419 5.671512,33.6260068 6.06203629,34.0165311 C6.45256058,34.4070554 7.08572556,34.4070554 7.47624985,34.0165311 Z" id="Path-6-Copy-24"></path>
                    </g>
                    <path d="M65.2318185,40.1431815 L54.8368052,29.7481681 C54.5783608,29.4897237 54.5788077,29.0746828 54.8424683,28.8110222 C55.105742,28.5477485 55.5215983,28.5473432 55.7882037,28.8139485 L66.0491393,39.0748841 L67.4633529,37.6606706 L57.2024173,27.399735 C56.1541454,26.3514632 54.4719605,26.3531029 53.4282548,27.3968087 C52.3842266,28.4408368 52.382416,30.1222061 53.4225916,31.1623817 L63.817605,41.557395 L65.2318185,40.1431815 Z" id="Rectangle-4-Copy-2" fill="#FABB2E" fill-rule="nonzero"></path>
                    <path d="M68.3333333,47 C65.6332746,47 63.4444444,44.8111699 63.4444444,42.1111111 C63.4444444,39.4110523 65.6332746,37.2222222 68.3333333,37.2222222 C71.0333921,37.2222222 73.2222222,39.4110523 73.2222222,42.1111111 C73.2222222,44.8111699 71.0333921,47 68.3333333,47 Z M68.3333333,45 C69.9288226,45 71.2222222,43.7066004 71.2222222,42.1111111 C71.2222222,40.5156218 69.9288226,39.2222222 68.3333333,39.2222222 C66.7378441,39.2222222 65.4444444,40.5156218 65.4444444,42.1111111 C65.4444444,43.7066004 66.7378441,45 68.3333333,45 Z" id="Oval-4-Copy-2" fill="#FABB2E" fill-rule="nonzero"></path>
                    <path d="M1,45.5555556 L28.7833345,45.5555556 C29.3356193,45.5555556 29.7833345,45.1078403 29.7833345,44.5555556 C29.7833345,44.0032708 29.3356193,43.5555556 28.7833345,43.5555556 L1,43.5555556 C0.44771525,43.5555556 0,44.0032708 0,44.5555556 C0,45.1078403 0.44771525,45.5555556 1,45.5555556 Z" id="Path-9" fill="#FABB2E" fill-rule="nonzero"></path>
                    <path d="M11.6666667,28.5555556 L31.1166636,28.5555556 C31.6689484,28.5555556 32.1166636,28.1078403 32.1166636,27.5555556 C32.1166636,27.0032708 31.6689484,26.5555556 31.1166636,26.5555556 L11.6666667,26.5555556 C11.1143819,26.5555556 10.6666667,27.0032708 10.6666667,27.5555556 C10.6666667,28.1078403 11.1143819,28.5555556 11.6666667,28.5555556 Z" id="Path-9" fill="#FABB2E" fill-rule="nonzero"></path>
                    <path d="M20,61.5555556 L33.8944435,61.5555556 C34.4467283,61.5555556 34.8944435,61.1078403 34.8944435,60.5555556 C34.8944435,60.0032708 34.4467283,59.5555556 33.8944435,59.5555556 L20,59.5555556 C19.4477153,59.5555556 19,60.0032708 19,60.5555556 C19,61.1078403 19.4477153,61.5555556 20,61.5555556 Z" id="Path-9" fill="#FABB2E" fill-rule="nonzero"></path>
                </g>
            </g>
        </g>
    </g>
</svg>