<?xml version="1.0" encoding="UTF-8" standalone="no"?>
<svg width="90px" height="90px" viewBox="0 0 90 90" version="1.1" xmlns="http://www.w3.org/2000/svg" xmlns:xlink="http://www.w3.org/1999/xlink">
    <!-- Generator: Sketch 43.2 (39069) - http://www.bohemiancoding.com/sketch -->
    <title>img_graphic_QR</title>
    <desc>Created with Sketch.</desc>
    <defs></defs>
    <g id="Symbols" stroke="none" stroke-width="1" fill="none" fill-rule="evenodd">
        <g id="Img-/-Feature-illustration-/-QR" transform="translate(-5.000000, -5.000000)">
            <g id="img_graphic_QR">
                <rect id="Bound" x="0" y="0" width="100" height="100"></rect>
                <circle id="Background" fill="#F3F6F6" cx="50" cy="50" r="45"></circle>
                <g id="icons_header_deactivated_qrcode" transform="translate(10.000000, 10.000000)">
                    <rect id="Rectangle-7" x="0" y="0" width="80" height="80"></rect>
                    <polygon id="Rectangle-17" fill="#FFFFFF" fill-rule="nonzero" points="8.66666667 34.6666667 34.6666667 34.6666667 34.6666667 8.66666667 8.66666667 8.66666667"></polygon>
                    <polygon id="Rectangle-17-Copy-2" fill="#FFFFFF" fill-rule="nonzero" points="8.66666667 71.3333333 34.6666667 71.3333333 34.6666667 45.3333333 8.66666667 45.3333333"></polygon>
                    <polygon id="Rectangle-17-Copy" fill="#FFFFFF" fill-rule="nonzero" points="45.3333333 34.6666667 71.3333333 34.6666667 71.3333333 8.66666667 45.3333333 8.66666667"></polygon>
                    <path d="M8.66666667,34.6666667 L34.6666667,34.6666667 L34.6666667,8.66666667 L8.66666667,8.66666667 L8.66666667,34.6666667 Z M6.66666667,8.65828369 C6.66666667,7.55834398 7.56450708,6.66666667 8.65828369,6.66666667 L34.6750496,6.66666667 C35.7749894,6.66666667 36.6666667,7.56450708 36.6666667,8.65828369 L36.6666667,34.6750496 C36.6666667,35.7749894 35.7688263,36.6666667 34.6750496,36.6666667 L8.65828369,36.6666667 C7.55834398,36.6666667 6.66666667,35.7688263 6.66666667,34.6750496 L6.66666667,8.65828369 Z" id="Rectangle-17" fill="#FABB2E" fill-rule="nonzero"></path>
                    <path d="M8.66666667,71.3333333 L34.6666667,71.3333333 L34.6666667,45.3333333 L8.66666667,45.3333333 L8.66666667,71.3333333 Z M6.66666667,45.3249504 C6.66666667,44.2250106 7.56450708,43.3333333 8.65828369,43.3333333 L34.6750496,43.3333333 C35.7749894,43.3333333 36.6666667,44.2311737 36.6666667,45.3249504 L36.6666667,71.3417163 C36.6666667,72.441656 35.7688263,73.3333333 34.6750496,73.3333333 L8.65828369,73.3333333 C7.55834398,73.3333333 6.66666667,72.4354929 6.66666667,71.3417163 L6.66666667,45.3249504 Z" id="Rectangle-17-Copy-2" fill="#FABB2E" fill-rule="nonzero"></path>
                    <path d="M45.3333333,34.6666667 L71.3333333,34.6666667 L71.3333333,8.66666667 L45.3333333,8.66666667 L45.3333333,34.6666667 Z M43.3333333,8.65828369 C43.3333333,7.55834398 44.2311737,6.66666667 45.3249504,6.66666667 L71.3417163,6.66666667 C72.441656,6.66666667 73.3333333,7.56450708 73.3333333,8.65828369 L73.3333333,34.6750496 C73.3333333,35.7749894 72.4354929,36.6666667 71.3417163,36.6666667 L45.3249504,36.6666667 C44.2250106,36.6666667 43.3333333,35.7688263 43.3333333,34.6750496 L43.3333333,8.65828369 Z" id="Rectangle-17-Copy" fill="#FABB2E" fill-rule="nonzero"></path>
                    <path d="M17,26.3333333 L26.3333333,26.3333333 L26.3333333,17 L17,17 L17,26.3333333 Z M15,16.9961347 C15,15.8937 15.8955413,15 16.9961347,15 L26.3371986,15 C27.4396334,15 28.3333333,15.8955413 28.3333333,16.9961347 L28.3333333,26.3371986 C28.3333333,27.4396334 27.437792,28.3333333 26.3371986,28.3333333 L16.9961347,28.3333333 C15.8937,28.3333333 15,27.437792 15,26.3371986 L15,16.9961347 Z" id="Rectangle-17" fill="#FABB2E" fill-rule="nonzero"></path>
                    <path d="M17,63 L26.3333333,63 L26.3333333,53.6666667 L17,53.6666667 L17,63 Z M15,53.6628014 C15,52.5603666 15.8955413,51.6666667 16.9961347,51.6666667 L26.3371986,51.6666667 C27.4396334,51.6666667 28.3333333,52.562208 28.3333333,53.6628014 L28.3333333,63.0038653 C28.3333333,64.1063 27.437792,65 26.3371986,65 L16.9961347,65 C15.8937,65 15,64.1044587 15,63.0038653 L15,53.6628014 Z" id="Rectangle-17-Copy-2" fill="#FABB2E" fill-rule="nonzero"></path>
                    <path d="M53.6666667,26.3333333 L63,26.3333333 L63,17 L53.6666667,17 L53.6666667,26.3333333 Z M51.6666667,16.9961347 C51.6666667,15.8937 52.562208,15 53.6628014,15 L63.0038653,15 C64.1063,15 65,15.8955413 65,16.9961347 L65,26.3371986 C65,27.4396334 64.1044587,28.3333333 63.0038653,28.3333333 L53.6628014,28.3333333 C52.5603666,28.3333333 51.6666667,27.437792 51.6666667,26.3371986 L51.6666667,16.9961347 Z" id="Rectangle-17-Copy" fill="#FABB2E" fill-rule="nonzero"></path>
                    <g id="Group-2" transform="translate(43.000000, 43.000000)" fill-rule="nonzero" fill="#FFFFFF">
                        <path d="M0.333333333,2.33294832 C0.333333333,1.22859146 1.22076662,0.333333333 2.33294832,0.333333333 L8.33371835,0.333333333 C9.43807521,0.333333333 10.3333333,1.22076662 10.3333333,2.33294832 L10.3333333,8.33371835 C10.3333333,9.43807521 9.44590004,10.3333333 8.33371835,10.3333333 L2.33294832,10.3333333 C1.22859146,10.3333333 0.333333333,9.44590004 0.333333333,8.33371835 L0.333333333,2.33294832 Z" id="Rectangle-17-Copy"></path>
                        <path d="M10.3333333,12.3329483 C10.3333333,11.2285915 11.2207666,10.3333333 12.3329483,10.3333333 L18.3337183,10.3333333 C19.4380752,10.3333333 20.3333333,11.2207666 20.3333333,12.3329483 L20.3333333,18.3337183 C20.3333333,19.4380752 19.4459,20.3333333 18.3337183,20.3333333 L12.3329483,20.3333333 C11.2285915,20.3333333 10.3333333,19.4459 10.3333333,18.3337183 L10.3333333,12.3329483 Z" id="Rectangle-17-Copy"></path>
                        <path d="M20.3333333,2.33294832 C20.3333333,1.22859146 21.2207666,0.333333333 22.3329483,0.333333333 L28.3337183,0.333333333 C29.4380752,0.333333333 30.3333333,1.22076662 30.3333333,2.33294832 L30.3333333,8.33371835 C30.3333333,9.43807521 29.4459,10.3333333 28.3337183,10.3333333 L22.3329483,10.3333333 C21.2285915,10.3333333 20.3333333,9.44590004 20.3333333,8.33371835 L20.3333333,2.33294832 Z" id="Rectangle-17-Copy"></path>
                        <path d="M20.3333333,22.3329483 C20.3333333,21.2285915 21.2207666,20.3333333 22.3329483,20.3333333 L28.3337183,20.3333333 C29.4380752,20.3333333 30.3333333,21.2207666 30.3333333,22.3329483 L30.3333333,28.3337183 C30.3333333,29.4380752 29.4459,30.3333333 28.3337183,30.3333333 L22.3329483,30.3333333 C21.2285915,30.3333333 20.3333333,29.4459 20.3333333,28.3337183 L20.3333333,22.3329483 Z" id="Rectangle-17-Copy"></path>
                        <path d="M0.333333333,22.3329483 C0.333333333,21.2285915 1.22076662,20.3333333 2.33294832,20.3333333 L8.33371835,20.3333333 C9.43807521,20.3333333 10.3333333,21.2207666 10.3333333,22.3329483 L10.3333333,28.3337183 C10.3333333,29.4380752 9.44590004,30.3333333 8.33371835,30.3333333 L2.33294832,30.3333333 C1.22859146,30.3333333 0.333333333,29.4459 0.333333333,28.3337183 L0.333333333,22.3329483 Z" id="Rectangle-17-Copy"></path>
                    </g>
                    <g id="Group-2" transform="translate(43.000000, 43.000000)" fill-rule="nonzero" fill="#FABB2E">
                        <path d="M2.33333333,8.33333333 L8.33333333,8.33333333 L8.33333333,2.33333333 L2.33333333,2.33333333 L2.33333333,8.33333333 Z M0.333333333,2.33294832 C0.333333333,1.22859146 1.22076662,0.333333333 2.33294832,0.333333333 L8.33371835,0.333333333 C9.43807521,0.333333333 10.3333333,1.22076662 10.3333333,2.33294832 L10.3333333,8.33371835 C10.3333333,9.43807521 9.44590004,10.3333333 8.33371835,10.3333333 L2.33294832,10.3333333 C1.22859146,10.3333333 0.333333333,9.44590004 0.333333333,8.33371835 L0.333333333,2.33294832 Z" id="Rectangle-17-Copy"></path>
                        <path d="M12.3333333,18.3333333 L18.3333333,18.3333333 L18.3333333,12.3333333 L12.3333333,12.3333333 L12.3333333,18.3333333 Z M10.3333333,12.3329483 C10.3333333,11.2285915 11.2207666,10.3333333 12.3329483,10.3333333 L18.3337183,10.3333333 C19.4380752,10.3333333 20.3333333,11.2207666 20.3333333,12.3329483 L20.3333333,18.3337183 C20.3333333,19.4380752 19.4459,20.3333333 18.3337183,20.3333333 L12.3329483,20.3333333 C11.2285915,20.3333333 10.3333333,19.4459 10.3333333,18.3337183 L10.3333333,12.3329483 Z" id="Rectangle-17-Copy"></path>
                        <path d="M22.3333333,8.33333333 L28.3333333,8.33333333 L28.3333333,2.33333333 L22.3333333,2.33333333 L22.3333333,8.33333333 Z M20.3333333,2.33294832 C20.3333333,1.22859146 21.2207666,0.333333333 22.3329483,0.333333333 L28.3337183,0.333333333 C29.4380752,0.333333333 30.3333333,1.22076662 30.3333333,2.33294832 L30.3333333,8.33371835 C30.3333333,9.43807521 29.4459,10.3333333 28.3337183,10.3333333 L22.3329483,10.3333333 C21.2285915,10.3333333 20.3333333,9.44590004 20.3333333,8.33371835 L20.3333333,2.33294832 Z" id="Rectangle-17-Copy"></path>
                        <path d="M22.3333333,28.3333333 L28.3333333,28.3333333 L28.3333333,22.3333333 L22.3333333,22.3333333 L22.3333333,28.3333333 Z M20.3333333,22.3329483 C20.3333333,21.2285915 21.2207666,20.3333333 22.3329483,20.3333333 L28.3337183,20.3333333 C29.4380752,20.3333333 30.3333333,21.2207666 30.3333333,22.3329483 L30.3333333,28.3337183 C30.3333333,29.4380752 29.4459,30.3333333 28.3337183,30.3333333 L22.3329483,30.3333333 C21.2285915,30.3333333 20.3333333,29.4459 20.3333333,28.3337183 L20.3333333,22.3329483 Z" id="Rectangle-17-Copy"></path>
                        <path d="M2.33333333,28.3333333 L8.33333333,28.3333333 L8.33333333,22.3333333 L2.33333333,22.3333333 L2.33333333,28.3333333 Z M0.333333333,22.3329483 C0.333333333,21.2285915 1.22076662,20.3333333 2.33294832,20.3333333 L8.33371835,20.3333333 C9.43807521,20.3333333 10.3333333,21.2207666 10.3333333,22.3329483 L10.3333333,28.3337183 C10.3333333,29.4380752 9.44590004,30.3333333 8.33371835,30.3333333 L2.33294832,30.3333333 C1.22859146,30.3333333 0.333333333,29.4459 0.333333333,28.3337183 L0.333333333,22.3329483 Z" id="Rectangle-17-Copy"></path>
                    </g>
                </g>
            </g>
        </g>
    </g>
</svg>